<svg xmlns="http://www.w3.org/2000/svg" xmlns:xlink="http://www.w3.org/1999/xlink" width="67" height="55" viewBox="0 0 67 55">
    <defs>
        <path id="a" d="M10.2 17.248c0 1.241-1.01 2.252-2.25 2.252a2.256 2.256 0 0 1-2.248-2.109.75.75 0 0 1 .702-.796c.451-.041.768.289.795.702a.753.753 0 0 0 1.502-.048c0-.338-.145-.582-.856-.753l-.151-.038C6.045 16.05 5.7 15.032 5.7 14.25 5.7 13.01 6.711 12 7.952 12c1.183 0 2.169.924 2.247 2.104a.75.75 0 0 1-.7.799c-.365.018-.769-.287-.797-.701a.753.753 0 0 0-1.502.048c0 .333.144.576.855.753 1.884.454 2.145 1.599 2.145 2.245zm4.05.752c-.262 0-.75 0-.75-2.25s.488-2.25.75-2.25.75 0 .75 2.25-.488 2.25-.75 2.25zm0-6C12 12 12 14.724 12 15.75c0 1.026 0 3.75 2.25 3.75s2.25-2.724 2.25-3.75c0-1.026 0-3.75-2.25-3.75zm7.5 7.5H19.5a.75.75 0 0 1-.75-.75v-6a.75.75 0 0 1 1.5 0V18h1.5a.75.75 0 0 1 0 1.5zm4.35-1.67v-4.132c0-.11.09-.2.2-.2h1.057c.47 0 1.325.68 1.325 2.266 0 1.585-.94 2.265-1.325 2.265h-1.056a.2.2 0 0 1-.2-.2zm3.962-2.08c0 3-1.373 3.75-2.443 3.75H25.5a.75.75 0 0 1-.75-.75v-6a.75.75 0 0 1 .75-.75h2.119c.987 0 2.443.75 2.443 3.75zM4.5 27V4.5h27l.003 22.5H4.5zm21 6H27v-3h-1.5v3zM9 33h1.5v-3H9v3zM4.5 1.5c-1.655 0-3 1.345-3 3V27c0 1.654 1.345 3 3 3h3v3.75c0 .414.336.75.75.75h3a.75.75 0 0 0 .75-.75V30h12v3.75c0 .414.336.75.75.75h3a.75.75 0 0 0 .75-.75V30h3c1.654 0 3-1.346 3-3V4.5c0-1.655-1.346-3-3-3h-27z"/>
    </defs>
    <g fill="none" fill-rule="evenodd">
        <path fill="#A9AFBA" d="M56.93 26H59a8 8 0 1 1 0 16H17a8 8 0 0 1-6.93-12H8a8 8 0 1 1 0-16h42a8 8 0 0 1 6.93 12z" opacity=".208"/>
        <path fill="#FC8868" d="M16.657-1V.7a3.752 3.752 0 0 0 3.752 3.752 3.752 3.752 0 0 0-3.752 3.752v2.11-2.11a3.752 3.752 0 0 0-3.752-3.752A3.752 3.752 0 0 0 16.657.7V-1z" opacity=".723"/>
        <path fill="#FAE5A4" d="M12.657 45v1.7a3.752 3.752 0 0 0 3.752 3.752 3.752 3.752 0 0 0-3.752 3.752v2.11-2.11a3.752 3.752 0 0 0-3.752-3.752 3.752 3.752 0 0 0 3.752-3.752V45z"/>
        <path fill="#F6D15B" fill-opacity=".552" d="M63.243 18v1.275a2.814 2.814 0 0 0 2.814 2.814 2.814 2.814 0 0 0-2.814 2.814v1.582-1.582a2.814 2.814 0 0 0-2.815-2.814 2.814 2.814 0 0 0 2.815-2.814V18z"/>
        <path fill="#FC8868" d="M23 33V16a3 3 0 0 1 3-3h19.997a3 3 0 0 1 3 3L49 33a3 3 0 0 1-3 3H26a3 3 0 0 1-3-3z"/>
        <g transform="translate(16 9)">
            <mask id="b" fill="#fff">
                <use xlink:href="#a"/>
            </mask>
            <use fill="#3C475B" xlink:href="#a"/>
            <g mask="url(#b)">
                <path fill="#3C475B" d="M-57-57H93V93H-57z"/>
            </g>
        </g>
    </g>
</svg>
