<svg id="Layer_1" data-name="Layer 1" xmlns="http://www.w3.org/2000/svg" xmlns:xlink="http://www.w3.org/1999/xlink" width="142" height="142" viewBox="0 0 142 142"><defs><clipPath id="clip-path"><rect x="4" y="4" width="134" height="134" fill="none"/></clipPath><clipPath id="clip-path-2"><circle cx="71" cy="71" r="66" fill="none"/></clipPath><clipPath id="clip-path-4"><rect width="142" height="142" fill="none"/></clipPath><clipPath id="clip-path-5"><rect x="5" y="5" width="132" height="132" fill="none"/></clipPath></defs><title>icon-region-woden-valley</title><g clip-path="url(#clip-path)"><path d="M99.9543,100.1874a4.5941,4.5941,0,0,1-9.1882,0c0-2.5273,2.0569-13.5973,4.594-13.5973S99.9543,97.66,99.9543,100.1874Z" fill="none" stroke="#8c59fc" stroke-miterlimit="10"/><line x1="95.3591" y1="104.7637" x2="95.3591" y2="109.1166" fill="none" stroke="#8c59fc" stroke-miterlimit="10"/><path d="M115.0825,108.36a5.9187,5.9187,0,0,1-11.8374,0c0-3.2561,2.65-17.5175,5.9185-17.5175S115.0825,105.1034,115.0825,108.36Z" fill="none" stroke="#8c59fc" stroke-miterlimit="10"/><line x1="109.1641" y1="114.2552" x2="109.1641" y2="119.8631" fill="none" stroke="#8c59fc" stroke-miterlimit="10"/><path d="M87.105,93.0137a2.8045,2.8045,0,0,1-5.6089,0c0-1.5428,1.2556-8.3,2.8044-8.3S87.105,91.4709,87.105,93.0137Z" fill="none" stroke="#8c59fc" stroke-miterlimit="10"/><line x1="84.3" y1="95.8072" x2="84.3" y2="98.4644" fill="none" stroke="#8c59fc" stroke-miterlimit="10"/><path d="M36.8589,47.4764c-.1006,1.1349-.5659,51.2092-.5659,51.2092h3.56Z" fill="none" stroke="#8c59fc" stroke-miterlimit="10"/><polyline points="36.859 47.476 33.694 98.686 36.293 98.686" fill="none" stroke="#8c59fc" stroke-miterlimit="10"/><path d="M49.8218,24.2843l1.4953,1.9149L32.59,53.79s-2.2034-.5443-1.8511-.9221C36.2927,46.91,49.8218,24.2843,49.8218,24.2843Z" fill="none" stroke="#8c59fc" stroke-miterlimit="10"/><polyline points="38.963 41.592 39.854 30.242 38.073 28.682 37.248 44.159" fill="none" stroke="#8c59fc" stroke-miterlimit="10"/><polyline points="38.874 44.533 38.874 55.137 37.248 55.137" fill="none" stroke="#8c59fc" stroke-miterlimit="10"/><path d="M25.209,101.0534s4.5168-2.2545,6.9817-2.2545h7.5666a18.5868,18.5868,0,0,1,7.0071,1.3436,7.6831,7.6831,0,0,1,1.7434.9109" fill="none" stroke="#8c59fc" stroke-linecap="round" stroke-miterlimit="10"/><path d="M78.6494,116.4343v-3.3174a2.8573,2.8573,0,0,0-.1716-.9751l-1.8137-4.7132a2.1573,2.1573,0,0,0-2.014-1.3793h-8.538a2.1564,2.1564,0,0,0-2.0142,1.3793l-1.814,4.7132a2.8459,2.8459,0,0,0-.1718.9754v3.3171a.7178.7178,0,0,0,.7187.7162h15.1A.7179.7179,0,0,0,78.6494,116.4343Z" fill="none" stroke="#8c59fc" stroke-linecap="round" stroke-miterlimit="10"/><path d="M62.1121,116.4343v1.79a.7175.7175,0,0,0,.7187.7165h1.0784a.7177.7177,0,0,0,.7192-.7165v-1.0741" fill="none" stroke="#8c59fc" stroke-linecap="round" stroke-miterlimit="10"/><path d="M78.6494,116.4343v1.79a.7176.7176,0,0,1-.719.7165H76.8523a.7176.7176,0,0,1-.7192-.7165v-1.0741" fill="none" stroke="#8c59fc" stroke-linecap="round" stroke-miterlimit="10"/><path d="M62.8311,111.0626l.5249.1744a3.6084,3.6084,0,0,0,1.1372.1835H76.2686a3.61,3.61,0,0,0,1.1372-.1835l.5249-.1744" fill="none" stroke="#8c59fc" stroke-linecap="round" stroke-miterlimit="10"/><path d="M65.7073,114.6436H64.2695a1.0764,1.0764,0,0,1-1.0786-1.0744.3587.3587,0,0,1,.36-.3579h1.4378a1.0765,1.0765,0,0,1,1.0784,1.0744A.3587.3587,0,0,1,65.7073,114.6436Z" fill="none" stroke="#8c59fc" stroke-linecap="round" stroke-miterlimit="10"/><line x1="73.2568" y1="115.718" x2="67.5049" y2="115.718" fill="none" stroke="#8c59fc" stroke-linecap="round" stroke-miterlimit="10"/><path d="M76.4922,114.6436h-1.438a.3586.3586,0,0,1-.3591-.3579,1.0762,1.0762,0,0,1,1.0781-1.0744h1.438a.3587.3587,0,0,1,.36.3579A1.0765,1.0765,0,0,1,76.4922,114.6436Z" fill="none" stroke="#8c59fc" stroke-linecap="round" stroke-miterlimit="10"/><path d="M62.4717,110.7046H61.2139a.8972.8972,0,0,1-.899-.8955.5383.5383,0,0,1,.5389-.5372h1.0786a.5382.5382,0,0,1,.5393.5372Z" fill="none" stroke="#8c59fc" stroke-linecap="round" stroke-miterlimit="10"/><path d="M78.29,110.7046h1.2581a.8973.8973,0,0,0,.8987-.8955.5383.5383,0,0,0-.5388-.5372H78.8293a.5384.5384,0,0,0-.5393.5372Z" fill="none" stroke="#8c59fc" stroke-linecap="round" stroke-miterlimit="10"/><line x1="64.0127" y1="98.7328" x2="36.5" y2="127.5" fill="none" stroke="#8c59fc" stroke-miterlimit="10"/><line x1="105.5002" y1="127.5" x2="76.2859" y2="98.7329" fill="none" stroke="#8c59fc" stroke-miterlimit="10"/><circle cx="71" cy="71" r="66" fill="none" stroke="#8c59fc" stroke-miterlimit="10"/></g><g clip-path="url(#clip-path-2)"><g clip-path="url(#clip-path)"><g style="isolation:isolate"><g clip-path="url(#clip-path-4)"><g clip-path="url(#clip-path-5)"><circle cx="71" cy="71" r="66" fill="none" stroke="#8c59fc" stroke-miterlimit="10"/></g></g></g></g></g></svg>