<svg id="Layer_1" data-name="Layer 1" xmlns="http://www.w3.org/2000/svg" xmlns:xlink="http://www.w3.org/1999/xlink" width="142" height="142" viewBox="0 0 142 142"><defs><clipPath id="clip-path"><rect x="4" y="4" width="134" height="134" fill="none"/></clipPath><clipPath id="clip-path-2"><circle cx="71" cy="71" r="66" fill="none"/></clipPath><clipPath id="clip-path-4"><rect x="-25" width="167" height="142" fill="none"/></clipPath><clipPath id="clip-path-5"><rect x="5" y="5" width="132" height="132" fill="none"/></clipPath></defs><title>icon-region-queanbeyan</title><g clip-path="url(#clip-path)"><circle cx="71" cy="71" r="66" fill="none" stroke="#8c59fc" stroke-miterlimit="10"/></g><g clip-path="url(#clip-path-2)"><g clip-path="url(#clip-path)"><g style="isolation:isolate"><g clip-path="url(#clip-path-4)"><g clip-path="url(#clip-path-5)"><circle cx="71" cy="71" r="66" fill="none" stroke="#8c59fc" stroke-miterlimit="10"/><polygon points="80 37.038 80 87.038 88 87.038 88 77.148 84 37.429 80 37.038" fill="none" stroke="#8c59fc" stroke-miterlimit="10"/><rect x="73" y="77.0376" width="7" height="10" fill="none" stroke="#8c59fc" stroke-miterlimit="10"/><polyline points="80 77.038 73 77.038 76.5 37.429 80 37.038" fill="none" stroke="#8c59fc" stroke-miterlimit="10"/><line x1="80" y1="77.3711" x2="88" y2="77.7041" fill="none" stroke="#8c59fc" stroke-miterlimit="10"/><polyline points="85 42.038 106 43.996 106 46.038 85.344 44.112" fill="none" stroke="#8c59fc" stroke-miterlimit="10"/><line x1="73" y1="77.5376" x2="-20" y2="77.5376" fill="none" stroke="#8c59fc" stroke-miterlimit="10"/><line x1="73.5895" y1="84.6119" x2="-18.8521" y2="80.8517" fill="none" stroke="#8c59fc" stroke-miterlimit="10"/><line x1="107.7834" y1="86.0765" x2="88.151" y2="85.278" fill="none" stroke="#8c59fc" stroke-miterlimit="10"/><line x1="73.589" y1="87.3102" x2="-19.134" y2="80.8323" fill="none" stroke="#8c59fc" stroke-miterlimit="10"/><line x1="110.2354" y1="92.6596" x2="88.151" y2="88.5236" fill="none" stroke="#8c59fc" stroke-miterlimit="10"/><line x1="134.9999" y1="91" x2="103.688" y2="85.8603" fill="none" stroke="#8c59fc" stroke-miterlimit="10"/><polyline points="74.889 85.507 74.889 79.088 78.79 79.088" fill="none" stroke="#8c59fc" stroke-miterlimit="10"/><polyline points="81.65 85.507 81.65 79.088 86.591 79.088" fill="none" stroke="#8c59fc" stroke-miterlimit="10"/><polyline points="109.751 84.858 109.751 79.737 113.27 79.737" fill="none" stroke="#8c59fc" stroke-miterlimit="10"/><path d="M76.84,39.18S33.2842,75.0305,16.1219,77.2574" fill="none" stroke="#8c59fc" stroke-miterlimit="10"/><line x1="99.4409" y1="45.8708" x2="85.715" y2="52.6064" fill="none" stroke="#8c59fc" stroke-miterlimit="10"/><path d="M75.16,58.1968c-.65.1966-34.4651,17.2266-45.5164,19.0608" fill="none" stroke="#8c59fc" stroke-miterlimit="10"/><line x1="66.606" y1="47.2669" x2="72.0413" y2="77.2575" fill="none" stroke="#8c59fc" stroke-miterlimit="10"/><line x1="56.58" y1="54.7568" x2="60.1937" y2="77.2574" fill="none" stroke="#8c59fc" stroke-miterlimit="10"/><line x1="47.71" y1="61.0052" x2="50.3119" y2="77.2575" fill="none" stroke="#8c59fc" stroke-miterlimit="10"/><line x1="55.6653" y1="67.3424" x2="53.567" y2="77.2575" fill="none" stroke="#8c59fc" stroke-miterlimit="10"/><line x1="65.4019" y1="62.7821" x2="62.798" y2="77.3232" fill="none" stroke="#8c59fc" stroke-miterlimit="10"/><line x1="90.2559" y1="50.495" x2="87.478" y2="70.5402" fill="none" stroke="#8c59fc" stroke-miterlimit="10"/><line x1="46.5133" y1="71.3868" x2="45.896" y2="77.3231" fill="none" stroke="#8c59fc" stroke-miterlimit="10"/><line x1="40.007" y1="66.0702" x2="41.4755" y2="77.3231" fill="none" stroke="#8c59fc" stroke-miterlimit="10"/><line x1="33.4" y1="70.0527" x2="34.1941" y2="77.3232" fill="none" stroke="#8c59fc" stroke-miterlimit="10"/><line x1="39.1565" y1="74.3553" x2="39.1565" y2="77.3232" fill="none" stroke="#8c59fc" stroke-miterlimit="10"/><line x1="80.2205" y1="87.3372" x2="80.2205" y2="92.9776" fill="none" stroke="#8c59fc" stroke-miterlimit="10"/><line x1="88.1504" y1="86.1553" x2="88.1504" y2="88.519" fill="none" stroke="#8c59fc" stroke-miterlimit="10"/><line x1="114.4144" y1="84.9735" x2="114.4144" y2="87.3372" fill="none" stroke="#8c59fc" stroke-miterlimit="10"/><line x1="73.5895" y1="87.3372" x2="73.5895" y2="96.122" fill="none" stroke="#8c59fc" stroke-miterlimit="10"/><path d="M88.1506,88.5236A7.5621,7.5621,0,0,0,84.12,90.7505c-1.3,1.7034-5.114,2.62-6.0238,2.62-.7057,0-2.2439,2.4389-6.41,3.3532-4.3461.9542-8.2449,2.9774-12.6086,3.8425-12.6067,2.5-6.4109,1.157-12.6067,2.5C41.084,104.2351,24.5347,104.7772,15,106" fill="none" stroke="#8c59fc" stroke-miterlimit="10"/><polygon points="107.783 41.441 107.783 77.64 114.414 77.911 111.028 41.835 107.783 41.441" fill="none" stroke="#8c59fc" stroke-miterlimit="10"/><polyline points="107.783 86.076 107.783 77.64 100.762 77.558 100.762 85.794" fill="none" stroke="#8c59fc" stroke-miterlimit="10"/><polyline points="104.082 44.055 104.244 42.003 107.784 41.441" fill="none" stroke="#8c59fc" stroke-miterlimit="10"/><line x1="101.441" y1="77.5583" x2="103.9017" y2="46.3394" fill="none" stroke="#8c59fc" stroke-miterlimit="10"/><polyline points="114.414 77.911 114.414 86.033 107.783 86.077" fill="none" stroke="#8c59fc" stroke-miterlimit="10"/><path d="M88.151,77.3887h12.8a2.7473,2.7473,0,0,1,2.7368,2.7575V85.91" fill="none" stroke="#8c59fc" stroke-miterlimit="10"/><line x1="3.5284" y1="77.2575" x2="3.5284" y2="82.3732" fill="none" stroke="#8c59fc" stroke-miterlimit="10"/><line x1="5.2854" y1="77.2575" x2="5.2854" y2="82.4925" fill="none" stroke="#8c59fc" stroke-miterlimit="10"/><line x1="7.0425" y1="77.2575" x2="7.0425" y2="82.6119" fill="none" stroke="#8c59fc" stroke-miterlimit="10"/><line x1="8.7985" y1="77.2575" x2="8.7985" y2="82.7313" fill="none" stroke="#8c59fc" stroke-miterlimit="10"/><line x1="10.5554" y1="77.2575" x2="10.5554" y2="82.8502" fill="none" stroke="#8c59fc" stroke-miterlimit="10"/><line x1="12.3124" y1="77.2575" x2="12.3124" y2="82.9696" fill="none" stroke="#8c59fc" stroke-miterlimit="10"/><line x1="14.0685" y1="77.2575" x2="14.0685" y2="83.089" fill="none" stroke="#8c59fc" stroke-miterlimit="10"/><line x1="15.8264" y1="77.2575" x2="15.8264" y2="83.2079" fill="none" stroke="#8c59fc" stroke-miterlimit="10"/><line x1="17.5824" y1="77.2575" x2="17.5824" y2="83.3273" fill="none" stroke="#8c59fc" stroke-miterlimit="10"/><line x1="19.3395" y1="77.2575" x2="19.3395" y2="83.4467" fill="none" stroke="#8c59fc" stroke-miterlimit="10"/><line x1="21.0964" y1="77.2575" x2="21.0964" y2="83.566" fill="none" stroke="#8c59fc" stroke-miterlimit="10"/><line x1="22.8524" y1="77.2575" x2="22.8524" y2="83.685" fill="none" stroke="#8c59fc" stroke-miterlimit="10"/><line x1="24.6094" y1="77.2575" x2="24.6094" y2="83.8044" fill="none" stroke="#8c59fc" stroke-miterlimit="10"/><line x1="26.3665" y1="77.2575" x2="26.3665" y2="83.9237" fill="none" stroke="#8c59fc" stroke-miterlimit="10"/><line x1="28.1234" y1="77.2575" x2="28.1234" y2="84.0431" fill="none" stroke="#8c59fc" stroke-miterlimit="10"/><line x1="29.8794" y1="77.2575" x2="29.8794" y2="84.1621" fill="none" stroke="#8c59fc" stroke-miterlimit="10"/><line x1="31.6365" y1="77.2575" x2="31.6365" y2="84.2814" fill="none" stroke="#8c59fc" stroke-miterlimit="10"/><line x1="33.3934" y1="77.2575" x2="33.3934" y2="84.4008" fill="none" stroke="#8c59fc" stroke-miterlimit="10"/><line x1="35.1504" y1="77.2575" x2="35.1504" y2="84.5201" fill="none" stroke="#8c59fc" stroke-miterlimit="10"/><line x1="36.9065" y1="77.2575" x2="36.9065" y2="84.6391" fill="none" stroke="#8c59fc" stroke-miterlimit="10"/><line x1="38.6635" y1="77.2575" x2="38.6635" y2="84.7585" fill="none" stroke="#8c59fc" stroke-miterlimit="10"/><line x1="40.4204" y1="77.2575" x2="40.4204" y2="84.8778" fill="none" stroke="#8c59fc" stroke-miterlimit="10"/><line x1="42.1764" y1="77.2575" x2="42.1764" y2="84.9968" fill="none" stroke="#8c59fc" stroke-miterlimit="10"/><line x1="43.9335" y1="77.2575" x2="43.9335" y2="85.1162" fill="none" stroke="#8c59fc" stroke-miterlimit="10"/><line x1="45.6904" y1="77.2575" x2="45.6904" y2="85.2355" fill="none" stroke="#8c59fc" stroke-miterlimit="10"/><line x1="47.4474" y1="77.2575" x2="47.4474" y2="85.3549" fill="none" stroke="#8c59fc" stroke-miterlimit="10"/><line x1="49.2035" y1="77.2575" x2="49.2035" y2="85.4739" fill="none" stroke="#8c59fc" stroke-miterlimit="10"/><line x1="50.9604" y1="77.2575" x2="50.9604" y2="85.5932" fill="none" stroke="#8c59fc" stroke-miterlimit="10"/><line x1="52.7174" y1="77.2575" x2="52.7174" y2="85.7126" fill="none" stroke="#8c59fc" stroke-miterlimit="10"/><line x1="54.4745" y1="77.2575" x2="54.4745" y2="85.832" fill="none" stroke="#8c59fc" stroke-miterlimit="10"/><line x1="56.2305" y1="77.2575" x2="56.2305" y2="85.9509" fill="none" stroke="#8c59fc" stroke-miterlimit="10"/><line x1="57.9874" y1="77.2575" x2="57.9874" y2="86.0699" fill="none" stroke="#8c59fc" stroke-miterlimit="10"/><line x1="59.7444" y1="77.2575" x2="59.7444" y2="86.1893" fill="none" stroke="#8c59fc" stroke-miterlimit="10"/><line x1="61.5005" y1="77.2575" x2="61.5005" y2="86.3086" fill="none" stroke="#8c59fc" stroke-miterlimit="10"/><line x1="63.2574" y1="77.2575" x2="63.2574" y2="86.4276" fill="none" stroke="#8c59fc" stroke-miterlimit="10"/><line x1="65.0144" y1="77.2575" x2="65.0144" y2="86.547" fill="none" stroke="#8c59fc" stroke-miterlimit="10"/><line x1="66.7715" y1="77.2575" x2="66.7715" y2="86.6663" fill="none" stroke="#8c59fc" stroke-miterlimit="10"/><line x1="68.5275" y1="77.2575" x2="68.5275" y2="86.7857" fill="none" stroke="#8c59fc" stroke-miterlimit="10"/><line x1="70.2844" y1="77.2575" x2="70.2844" y2="86.9047" fill="none" stroke="#8c59fc" stroke-miterlimit="10"/><line x1="72.0414" y1="77.2575" x2="72.0414" y2="87.024" fill="none" stroke="#8c59fc" stroke-miterlimit="10"/><line x1="88.2804" y1="77.5587" x2="88.2804" y2="85.2921" fill="none" stroke="#8c59fc" stroke-miterlimit="10"/><line x1="91.4015" y1="77.5587" x2="91.4015" y2="85.4174" fill="none" stroke="#8c59fc" stroke-miterlimit="10"/><line x1="94.5215" y1="77.5587" x2="94.5215" y2="85.5431" fill="none" stroke="#8c59fc" stroke-miterlimit="10"/><line x1="97.6425" y1="77.5587" x2="97.6425" y2="85.6687" fill="none" stroke="#8c59fc" stroke-miterlimit="10"/><line x1="100.7625" y1="77.5587" x2="100.7625" y2="85.794" fill="none" stroke="#8c59fc" stroke-miterlimit="10"/></g></g></g></g></g></svg>