<svg id="Layer_1" data-name="Layer 1" xmlns="http://www.w3.org/2000/svg" xmlns:xlink="http://www.w3.org/1999/xlink" width="142" height="142" viewBox="0 0 142 142"><defs><clipPath id="clip-path"><circle cx="71" cy="71" r="66" fill="none"/></clipPath><clipPath id="clip-path-2"><rect x="-1" width="152" height="142" fill="none"/></clipPath><clipPath id="clip-path-3"><rect x="5" y="5" width="132" height="132" fill="none"/></clipPath></defs><title>icon-region-belconnen-v2</title><circle cx="71" cy="71" r="66" fill="none" stroke="#8c59fc" stroke-miterlimit="10"/><g clip-path="url(#clip-path)"><g style="isolation:isolate"><g clip-path="url(#clip-path-2)"><g clip-path="url(#clip-path-3)"><circle cx="71" cy="71" r="66" fill="none" stroke="#8c59fc" stroke-miterlimit="10"/><path d="M29.3324,45.2345c-1.1218,0-3.3649.4216-2.2431,3.8387,0,0-5.3745.3744-5.3745,4.447s2.08,4.447,3.1309,4.447a1.94,1.94,0,0,0,1.5426-.7488s-.047,1.4976,2.1961,1.4976a2.0912,2.0912,0,0,0,2.2436-2.2468c.2335.9831,3.2712,1.3108,3.7387-.7488" fill="none" stroke="#8c59fc" stroke-linecap="round" stroke-linejoin="round"/><path d="M23.4438,57.6475a4.9538,4.9538,0,0,0-1.5888,3.3159c0,1.9191,2.57,2.7617,3.7387,2.2468" fill="none" stroke="#8c59fc" stroke-linecap="round" stroke-linejoin="round"/><path d="M24.0981,63.21c-.3211.5162-.3738,3.7448,2.2431,3.7448a3.3615,3.3615,0,0,0,2.9911-1.4984s.7458,1.4984,3.7387,1.4984a3.0312,3.0312,0,0,0,3.1406-2.8459" fill="none" stroke="#8c59fc" stroke-linecap="round" stroke-linejoin="round"/><polyline points="37.558 74.445 37.558 61.712 36.81 57.218 36.81 53.473 35.314 51.226 35.314 47.358" fill="none" stroke="#8c59fc" stroke-linecap="round" stroke-linejoin="round"/><polyline points="41.296 75.334 41.296 66.206 48.026 57.218 41.296 63.21 40.549 61.712 42.84 54.126 39.801 59.465 38.305 57.218 36.81 53.473 40.549 49.728 40.549 45.861" fill="none" stroke="#8c59fc" stroke-linecap="round" stroke-linejoin="round"/><polyline points="40.549 49.729 44.287 48.23 45.035 45.984" fill="none" stroke="#8c59fc" stroke-linecap="round" stroke-linejoin="round"/><polyline points="33.819 56.844 33.819 61.712 37.557 65.457" fill="none" stroke="#8c59fc" stroke-linecap="round" stroke-linejoin="round"/><polyline points="28.584 58.716 30.828 61.712 33.819 61.712" fill="none" stroke="#8c59fc" stroke-linecap="round" stroke-linejoin="round"/><path d="M41.2962,66.206s2.9676,2.13,4.5333-.7492a2.6816,2.6816,0,0,0,1.9644.7492A3.0675,3.0675,0,0,0,51.0167,63.21s3.5257.7117,4.7669-1.92a4.5783,4.5783,0,0,0-.73-4.7564" fill="none" stroke="#8c59fc" stroke-linecap="round" stroke-linejoin="round"/><polyline points="44.658 61.66 49.479 60.963 51.803 56.767" fill="none" stroke="#8c59fc" stroke-linecap="round" stroke-linejoin="round"/><path d="M48.0259,44.4854a2.4285,2.4285,0,0,1-4.4867,0s-.9344,1.4985-2.2431,1.4985-2.2431-1.4985-2.2431-1.4985-.6544,2.9961-2.9912,2.9961a2.5909,2.5909,0,0,1-2.2431-1.4976,2.2971,2.2971,0,0,1-2.2431,1.4976,2.1715,2.1715,0,0,1-2.2431-2.2469c0-2.2939,1.4951-2.2472,1.4951-2.2472a3.2,3.2,0,0,1-2.2431-2.9957c0-2.3406,1.5892-3.7449,2.9911-3.7449a3.5706,3.5706,0,0,1,2.2431.7488,2.1075,2.1075,0,0,1,2.2431-2.2464,2.3779,2.3779,0,0,1,2.2436,1.4976A4.7156,4.7156,0,0,1,42.0441,34c2.43,0,2.9907,2.9956,2.9907,2.9956s3.1458-.9076,4.44.3456c1.963,1.9013.7014,4.8978.7014,4.8978s4.58,0,4.58,3.7449A3.7326,3.7326,0,0,1,53.26,48.98s2.9907.8893,2.9907,3.7449c0,3.1832-1.3087,4.4941-2.9907,4.4941A2.4352,2.4352,0,0,1,51.017,55.72a3.1555,3.1555,0,0,1-2.9911,1.4981c-1.963,0-2.9911-2.5279-2.2431-4.4941a2.5111,2.5111,0,0,1-2.2436,1.4976,2.1968,2.1968,0,0,1-2.2431-2.2464" fill="none" stroke="#8c59fc" stroke-linecap="round" stroke-linejoin="round"/><line x1="135.8964" y1="79.8905" x2="4.0354" y2="79.8905" fill="none" stroke="#8c59fc" stroke-linecap="round" stroke-linejoin="round"/><path d="M46.0717,79.4848a1.6455,1.6455,0,0,0-1.6175-1.6721c-.0118,0-.0227.0031-.034.0035a2.7616,2.7616,0,0,0-2.7-2.4048,2.67,2.67,0,0,0-.4831.0462,2.7056,2.7056,0,0,0-2.25-1.2226,2.6511,2.6511,0,0,0-1.3305.3582,1.5732,1.5732,0,0,0-2.61-.2854,2.65,2.65,0,0,0-.6094-.0728A2.78,2.78,0,0,0,31.7038,77.06a2.8979,2.8979,0,0,0,.1969,1.05,1.6848,1.6848,0,0,0-.6988,1.3745" fill="none" stroke="#8c59fc" stroke-linecap="round" stroke-linejoin="round"/><line x1="15.8381" y1="72.8094" x2="15.8381" y2="77.6125" fill="none" stroke="#8c59fc" stroke-linecap="round" stroke-linejoin="round"/><line x1="15.2095" y1="77.7607" x2="15.2095" y2="79.7518" fill="none" stroke="#8c59fc" stroke-linecap="round" stroke-linejoin="round"/><line x1="24.3066" y1="77.7607" x2="24.3066" y2="79.7518" fill="none" stroke="#8c59fc" stroke-linecap="round" stroke-linejoin="round"/><line x1="23.6775" y1="72.8094" x2="23.6775" y2="77.6125" fill="none" stroke="#8c59fc" stroke-linecap="round" stroke-linejoin="round"/><line x1="15.8381" y1="73.5798" x2="23.6779" y2="73.5798" fill="none" stroke="#8c59fc" stroke-linecap="round" stroke-linejoin="round"/><line x1="15.8381" y1="76.3046" x2="23.6779" y2="76.3046" fill="none" stroke="#8c59fc" stroke-linecap="round" stroke-linejoin="round"/><line x1="13.9223" y1="77.6865" x2="25.5937" y2="77.6865" fill="none" stroke="#8c59fc" stroke-linecap="round" stroke-linejoin="round"/><line x1="66.286" y1="44.9742" x2="66.286" y2="79.6197" fill="none" stroke="#8c59fc" stroke-linecap="round" stroke-linejoin="round"/><line x1="73.1567" y1="57.1288" x2="73.1567" y2="71.6807" fill="none" stroke="#8c59fc" stroke-linecap="round" stroke-linejoin="round"/><line x1="77.7371" y1="57.1288" x2="77.7371" y2="71.6807" fill="none" stroke="#8c59fc" stroke-linecap="round" stroke-linejoin="round"/><line x1="84.607" y1="44.9742" x2="84.607" y2="79.6197" fill="none" stroke="#8c59fc" stroke-linecap="round" stroke-linejoin="round"/><line x1="66.2862" y1="57.1285" x2="84.5362" y2="57.1285" fill="none" stroke="#8c59fc" stroke-linecap="round" stroke-linejoin="round"/><line x1="66.2862" y1="71.6806" x2="84.5362" y2="71.6806" fill="none" stroke="#8c59fc" stroke-linecap="round" stroke-linejoin="round"/><line x1="66.2862" y1="44.7952" x2="84.5362" y2="44.7952" fill="none" stroke="#8c59fc" stroke-linecap="round" stroke-linejoin="round"/><line x1="73.4836" y1="59.0716" x2="77.7368" y2="59.0716" fill="none" stroke="#8c59fc" stroke-linecap="round" stroke-linejoin="round"/><line x1="73.4836" y1="61.1733" x2="77.7368" y2="61.1733" fill="none" stroke="#8c59fc" stroke-linecap="round" stroke-linejoin="round"/><line x1="73.4836" y1="63.2746" x2="77.7368" y2="63.2746" fill="none" stroke="#8c59fc" stroke-linecap="round" stroke-linejoin="round"/><line x1="73.4836" y1="65.3763" x2="77.7368" y2="65.3763" fill="none" stroke="#8c59fc" stroke-linecap="round" stroke-linejoin="round"/><line x1="73.4836" y1="67.4776" x2="77.7368" y2="67.4776" fill="none" stroke="#8c59fc" stroke-linecap="round" stroke-linejoin="round"/><line x1="73.4836" y1="71.6806" x2="77.7368" y2="71.6806" fill="none" stroke="#8c59fc" stroke-linecap="round" stroke-linejoin="round"/><line x1="73.4836" y1="69.5793" x2="77.7368" y2="69.5793" fill="none" stroke="#8c59fc" stroke-linecap="round" stroke-linejoin="round"/><line x1="70.8655" y1="51.1932" x2="73.1566" y2="51.1932" fill="none" stroke="#8c59fc" stroke-linecap="round" stroke-linejoin="round"/><line x1="77.7367" y1="51.1932" x2="80.026" y2="51.1932" fill="none" stroke="#8c59fc" stroke-linecap="round" stroke-linejoin="round"/><polyline points="61.038 49.869 75.446 35.436 89.855 49.869" fill="none" stroke="#8c59fc" stroke-linecap="round" stroke-linejoin="round"/><line x1="68.5754" y1="44.7952" x2="68.5754" y2="57.1286" fill="none" stroke="#8c59fc" stroke-linecap="round" stroke-linejoin="round"/><line x1="75.4111" y1="71.9047" x2="75.4111" y2="79.7396" fill="none" stroke="#8c59fc" stroke-linecap="round" stroke-linejoin="round"/><line x1="77.7371" y1="71.9047" x2="77.7371" y2="79.7396" fill="none" stroke="#8c59fc" stroke-linecap="round" stroke-linejoin="round"/><line x1="73.1384" y1="71.9047" x2="73.1384" y2="79.7396" fill="none" stroke="#8c59fc" stroke-linecap="round" stroke-linejoin="round"/><line x1="70.8655" y1="44.7952" x2="70.8655" y2="57.1286" fill="none" stroke="#8c59fc" stroke-linecap="round" stroke-linejoin="round"/><line x1="73.1565" y1="51.2942" x2="73.1565" y2="57.1284" fill="none" stroke="#8c59fc" stroke-linecap="round" stroke-linejoin="round"/><line x1="80.0262" y1="44.7952" x2="80.0262" y2="57.1286" fill="none" stroke="#8c59fc" stroke-linecap="round" stroke-linejoin="round"/><line x1="77.7367" y1="51.2942" x2="77.7367" y2="57.1284" fill="none" stroke="#8c59fc" stroke-linecap="round" stroke-linejoin="round"/><line x1="82.3161" y1="44.7952" x2="82.3161" y2="57.1286" fill="none" stroke="#8c59fc" stroke-linecap="round" stroke-linejoin="round"/><line x1="68.5756" y1="71.8894" x2="68.5756" y2="79.62" fill="none" stroke="#8c59fc" stroke-linecap="round" stroke-linejoin="round"/><line x1="70.8657" y1="71.8894" x2="70.8657" y2="79.62" fill="none" stroke="#8c59fc" stroke-linecap="round" stroke-linejoin="round"/><line x1="80.0264" y1="71.8894" x2="80.0264" y2="79.62" fill="none" stroke="#8c59fc" stroke-linecap="round" stroke-linejoin="round"/><line x1="82.3165" y1="71.8894" x2="82.3165" y2="79.62" fill="none" stroke="#8c59fc" stroke-linecap="round" stroke-linejoin="round"/><polyline points="84.536 57.128 105.339 76.281 120.059 76.281" fill="none" stroke="#8c59fc" stroke-linecap="round" stroke-linejoin="round"/><polyline points="84.622 52.999 95.256 62.662 95.281 66.892" fill="none" stroke="#8c59fc" stroke-linecap="round" stroke-linejoin="round"/><line x1="105.3418" y1="76.2807" x2="105.3318" y2="79.6198" fill="none" stroke="#8c59fc" stroke-linecap="round" stroke-linejoin="round"/><line x1="90.8898" y1="63.1059" x2="90.8898" y2="79.62" fill="none" stroke="#8c59fc" stroke-linecap="round" stroke-linejoin="round"/><line x1="97.1726" y1="68.825" x2="97.1726" y2="79.6198" fill="none" stroke="#8c59fc" stroke-linecap="round" stroke-linejoin="round"/><line x1="119.0186" y1="76.2807" x2="119.0186" y2="79.6198" fill="none" stroke="#8c59fc" stroke-linecap="round" stroke-linejoin="round"/><line x1="65.7212" y1="57.0509" x2="66.1581" y2="57.0509" fill="none" stroke="#8c59fc" stroke-linecap="round" stroke-linejoin="round"/><line x1="65.7212" y1="58.3003" x2="66.1581" y2="58.3003" fill="none" stroke="#8c59fc" stroke-linecap="round" stroke-linejoin="round"/><line x1="65.7212" y1="59.5497" x2="66.1581" y2="59.5497" fill="none" stroke="#8c59fc" stroke-linecap="round" stroke-linejoin="round"/><line x1="65.7212" y1="60.7992" x2="66.1581" y2="60.7992" fill="none" stroke="#8c59fc" stroke-linecap="round" stroke-linejoin="round"/><line x1="65.7212" y1="62.0486" x2="66.1581" y2="62.0486" fill="none" stroke="#8c59fc" stroke-linecap="round" stroke-linejoin="round"/><line x1="65.7212" y1="63.298" x2="66.1581" y2="63.298" fill="none" stroke="#8c59fc" stroke-linecap="round" stroke-linejoin="round"/><line x1="65.7212" y1="64.5475" x2="66.1581" y2="64.5475" fill="none" stroke="#8c59fc" stroke-linecap="round" stroke-linejoin="round"/><line x1="65.7212" y1="65.7969" x2="66.1581" y2="65.7969" fill="none" stroke="#8c59fc" stroke-linecap="round" stroke-linejoin="round"/><line x1="65.7212" y1="67.0463" x2="66.1581" y2="67.0463" fill="none" stroke="#8c59fc" stroke-linecap="round" stroke-linejoin="round"/><line x1="65.7212" y1="68.2957" x2="66.1581" y2="68.2957" fill="none" stroke="#8c59fc" stroke-linecap="round" stroke-linejoin="round"/><line x1="65.7212" y1="69.5452" x2="66.1581" y2="69.5452" fill="none" stroke="#8c59fc" stroke-linecap="round" stroke-linejoin="round"/><line x1="65.7212" y1="70.7946" x2="66.1581" y2="70.7946" fill="none" stroke="#8c59fc" stroke-linecap="round" stroke-linejoin="round"/><line x1="65.7212" y1="72.0441" x2="66.1581" y2="72.0441" fill="none" stroke="#8c59fc" stroke-linecap="round" stroke-linejoin="round"/><line x1="65.7212" y1="73.2935" x2="66.1581" y2="73.2935" fill="none" stroke="#8c59fc" stroke-linecap="round" stroke-linejoin="round"/><line x1="65.7212" y1="74.5429" x2="66.1581" y2="74.5429" fill="none" stroke="#8c59fc" stroke-linecap="round" stroke-linejoin="round"/><line x1="65.7212" y1="75.7923" x2="66.1581" y2="75.7923" fill="none" stroke="#8c59fc" stroke-linecap="round" stroke-linejoin="round"/><line x1="65.7212" y1="77.0418" x2="66.1581" y2="77.0418" fill="none" stroke="#8c59fc" stroke-linecap="round" stroke-linejoin="round"/><path d="M5,87.5678c2.7927,0,2.7927,2.0937,5.5849,2.0937s2.7927-2.0937,5.5849-2.0937,2.7927,2.0937,5.5849,2.0937,2.7933-2.0937,5.586-2.0937,2.7922,2.0937,5.5849,2.0937,2.7917-2.0937,5.5828-2.0937,2.7917,2.0937,5.5834,2.0937,2.7921-2.0937,5.5838-2.0937,2.7922,2.0937,5.5849,2.0937,2.7917-2.0937,5.5834-2.0937,2.7927,2.0937,5.5849,2.0937,2.7932-2.0937,5.5864-2.0937,2.7928,2.0937,5.585,2.0937,2.7927-2.0937,5.5859-2.0937,2.7927,2.0937,5.5854,2.0937,2.7933-2.0937,5.5865-2.0937,2.7932,2.0937,5.5865,2.0937,2.7932-2.0937,5.5859-2.0937,2.7927,2.0937,5.5854,2.0937,2.7922-2.0937,5.5849-2.0937,2.7933,2.0937,5.586,2.0937c2.7948,0,2.7948-2.0937,5.5891-2.0937s2.7932,2.0937,5.5864,2.0937c2.7953,0,2.7953-2.0937,5.59-2.0937s2.7954,2.0937,5.5907,2.0937" fill="none" stroke="#8c59fc" stroke-miterlimit="10" stroke-width="1.123"/><path d="M5,94.7666c2.7927,0,2.7927,2.0938,5.5849,2.0938s2.7927-2.0938,5.5849-2.0938S18.9625,96.86,21.7547,96.86s2.7933-2.0938,5.586-2.0938S30.1329,96.86,32.9256,96.86s2.7917-2.0938,5.5828-2.0938S41.3,96.86,44.0918,96.86s2.7921-2.0938,5.5838-2.0938S52.4678,96.86,55.2605,96.86s2.7917-2.0938,5.5834-2.0938S63.6366,96.86,66.4288,96.86s2.7932-2.0938,5.5864-2.0938S74.808,96.86,77.6,96.86s2.7927-2.0938,5.5859-2.0938S85.9788,96.86,88.7715,96.86s2.7933-2.0938,5.5865-2.0938S97.1512,96.86,99.9445,96.86s2.7932-2.0938,5.5859-2.0938,2.7927,2.0938,5.5854,2.0938,2.7922-2.0938,5.5849-2.0938,2.7933,2.0938,5.586,2.0938c2.7948,0,2.7948-2.0938,5.5891-2.0938s2.7932,2.0938,5.5864,2.0938c2.7953,0,2.7953-2.0938,5.59-2.0938s2.7954,2.0938,5.5907,2.0938" fill="none" stroke="#8c59fc" stroke-miterlimit="10" stroke-width="1.123"/><path d="M5,101.9654c2.7927,0,2.7927,2.0938,5.5849,2.0938s2.7927-2.0938,5.5849-2.0938,2.7927,2.0938,5.5849,2.0938,2.7933-2.0938,5.586-2.0938,2.7922,2.0938,5.5849,2.0938,2.7917-2.0938,5.5828-2.0938,2.7917,2.0938,5.5834,2.0938,2.7921-2.0938,5.5838-2.0938,2.7922,2.0938,5.5849,2.0938,2.7917-2.0938,5.5834-2.0938,2.7927,2.0938,5.5849,2.0938,2.7932-2.0938,5.5864-2.0938,2.7928,2.0938,5.585,2.0938,2.7927-2.0938,5.5859-2.0938,2.7927,2.0938,5.5854,2.0938,2.7933-2.0938,5.5865-2.0938,2.7932,2.0938,5.5865,2.0938,2.7932-2.0938,5.5859-2.0938,2.7927,2.0938,5.5854,2.0938,2.7922-2.0938,5.5849-2.0938,2.7933,2.0938,5.586,2.0938c2.7948,0,2.7948-2.0938,5.5891-2.0938s2.7932,2.0938,5.5864,2.0938c2.7953,0,2.7953-2.0938,5.59-2.0938s2.7954,2.0938,5.5907,2.0938" fill="none" stroke="#8c59fc" stroke-miterlimit="10" stroke-width="1.123"/><path d="M5,109.1639c2.7927,0,2.7927,2.0938,5.5849,2.0938s2.7927-2.0938,5.5849-2.0938,2.7927,2.0938,5.5849,2.0938,2.7933-2.0938,5.586-2.0938,2.7922,2.0938,5.5849,2.0938,2.7917-2.0938,5.5828-2.0938,2.7917,2.0938,5.5834,2.0938,2.7921-2.0938,5.5838-2.0938,2.7922,2.0938,5.5849,2.0938,2.7917-2.0938,5.5834-2.0938,2.7927,2.0938,5.5849,2.0938,2.7932-2.0938,5.5864-2.0938,2.7928,2.0938,5.585,2.0938,2.7927-2.0938,5.5859-2.0938,2.7927,2.0938,5.5854,2.0938,2.7933-2.0938,5.5865-2.0938,2.7932,2.0938,5.5865,2.0938,2.7932-2.0938,5.5859-2.0938,2.7927,2.0938,5.5854,2.0938,2.7922-2.0938,5.5849-2.0938,2.7933,2.0938,5.586,2.0938c2.7948,0,2.7948-2.0938,5.5891-2.0938s2.7932,2.0938,5.5864,2.0938c2.7953,0,2.7953-2.0938,5.59-2.0938s2.7954,2.0938,5.5907,2.0938" fill="none" stroke="#8c59fc" stroke-miterlimit="10" stroke-width="1.123"/></g></g></g></g></svg>