<svg xmlns="http://www.w3.org/2000/svg" width="138" height="49.0119" viewBox="0 0 138 49.0119"><title>zango-reverse</title><g id="Layer_2" data-name="Layer 2"><g id="Layer_1-2" data-name="Layer 1"><rect x="83.0157" width="54.4729" height="5.6245" fill="#8c59fc"/><polygon points="0 16.873 13.723 16.873 0 30.423 0 30.423 0 36.048 22.151 36.048 22.151 30.423 8.421 30.423 22.151 16.873 22.151 11.249 0 11.249 0 16.873" fill="#fff"/><path d="M43.6179,12.5579a12.9638,12.9638,0,1,0,0,22.287v1.2032h6.34V11.2489h-6.34Zm-6.624,17.7675a6.624,6.624,0,1,1,6.624-6.624A6.6238,6.6238,0,0,1,36.9939,30.3254Z" fill="#fff"/><path d="M125.0362,10.7376A12.9638,12.9638,0,1,0,138,23.7014,12.9637,12.9637,0,0,0,125.0362,10.7376Zm0,19.5878a6.624,6.624,0,1,1,6.6241-6.624A6.6238,6.6238,0,0,1,125.0362,30.3254Z" fill="#fff"/><path d="M102.0923,12.5579a12.9638,12.9638,0,1,0,0,22.287v1.2032h0A6.624,6.624,0,0,1,90.7843,40.732l-4.4829,4.4829a12.9638,12.9638,0,0,0,22.1306-9.1668V11.2489h-6.34ZM95.4682,30.3254a6.624,6.624,0,1,1,6.6241-6.624A6.6239,6.6239,0,0,1,95.4682,30.3254Z" fill="#fff"/><path d="M76.3071,14.7261a11.1729,11.1729,0,0,0-8.59-3.9884,10.9054,10.9054,0,0,0-6.7493,2.3063V11.2489h-6.34V36.048h6.34V19.9415a7.9172,7.9172,0,0,1,6.0337-3.0681,5.2245,5.2245,0,0,1,3.7324,1.3809c.92.92,1.4829,2.1986,1.4829,4.6526V36.048H78.864v-12.63C78.864,19.1746,77.9438,16.6691,76.3071,14.7261Z" fill="#fff"/></g></g></svg>