<svg xmlns="http://www.w3.org/2000/svg" viewBox="0 0 677.06 95.68"><defs><style>.cls-1{fill:#fff;}</style></defs><g id="Layer_2" data-name="Layer 2"><g id="Layer_1-2" data-name="Layer 1"><path class="cls-1" d="M119.23,2.49H103.89V45.87h15.34a23.7,23.7,0,0,0,16.58-6.26,21.16,21.16,0,0,0,6.42-15.44v-.11A21,21,0,0,0,135.8,8.68a23.81,23.81,0,0,0-16.57-6.19m0,6.17a16.53,16.53,0,0,1,11.9,4.5,15.33,15.33,0,0,1,4.39,11v.12c0,9.07-6.7,15.41-16.29,15.42h-8.8v-31Z"/><path class="cls-1" d="M162,12.69a16.27,16.27,0,0,0-11.88,5,17.09,17.09,0,0,0-4.73,11.92v.13a16.47,16.47,0,0,0,16.49,16.81h0a16.63,16.63,0,0,0,16.68-16.94v-.12a17,17,0,0,0-4.68-11.84,16.29,16.29,0,0,0-11.88-5m7.3,24.75a9.74,9.74,0,0,1-7.3,3.21c-5.71,0-10.19-4.84-10.2-11v-.11c0-6.24,4.34-10.95,10.08-10.95s10.27,4.86,10.27,11.06v.13a11.33,11.33,0,0,1-2.85,7.68"/><path class="cls-1" d="M297.78,12.68a11.82,11.82,0,0,0-9.38,4.13V13.34h-6.3V45.85h6.3V27.36c0-5.11,3.33-8.69,8.1-8.69s7.42,3,7.42,8.34V45.85h6.3v-20c0-8-4.88-13.21-12.44-13.21"/><path class="cls-1" d="M250.53,12.86a24.07,24.07,0,0,0-11.33,2.71l-.74.36,2,5.48.91-.45a19.06,19.06,0,0,1,8.74-2.11c5.2,0,7.89,2.4,8,7.15a30.79,30.79,0,0,0-8.28-1c-4,0-7.42.95-9.82,2.73A9.84,9.84,0,0,0,236,35.92V36c0,6.88,6.11,10.48,12.14,10.48a14.14,14.14,0,0,0,9.9-3.78v3.12h6.25V26.19c0-4.12-1.15-7.37-3.41-9.67s-5.87-3.66-10.36-3.66m5,26.05A10.45,10.45,0,0,1,249,41c-3.3,0-6.65-1.79-6.65-5.2v-.12c0-3.29,2.95-5.25,7.87-5.25a29,29,0,0,1,7.89,1.08v2.15a6.56,6.56,0,0,1-2.59,5.25"/><rect class="cls-1" x="270.02" y="13.34" width="6.3" height="32.52"/><path class="cls-1" d="M273.17,0a4.57,4.57,0,1,0,4.57,4.57A4.58,4.58,0,0,0,273.17,0"/><polygon class="cls-1" points="217.9 11.18 207.09 18.26 196.28 11.18 188.41 16.33 188.41 13.35 182.33 13.35 182.33 45.88 188.61 45.88 188.61 23.59 196.28 18.57 203.95 23.59 203.95 45.88 210.24 45.88 210.24 23.59 217.9 18.57 225.56 23.58 225.56 45.88 231.85 45.88 231.84 20.34 217.9 11.18"/><polygon class="cls-1" points="37.58 0 0 24.77 0 95.29 43.99 95.29 48.37 88.6 43.99 81.92 13.37 81.92 13.37 31.96 13.38 31.96 37.58 16.02 61.77 31.96 61.78 31.96 61.78 95.25 75.15 95.25 75.15 24.77 37.58 0"/><path class="cls-1" d="M518.05,31.42h2.57a2.76,2.76,0,1,1,0,5.49h-1.17V40h-1.4Zm2.51,4.17c1,0,1.64-.57,1.64-1.43s-.61-1.43-1.64-1.43h-1.11v2.86Z"/><path class="cls-1" d="M526.52,35.73a4.41,4.41,0,1,1,4.41,4.41A4.37,4.37,0,0,1,526.52,35.73Zm7.38,0a3,3,0,1,0-3,3.07A3,3,0,0,0,533.9,35.73Z"/><path class="cls-1" d="M537.64,31.42h1.44l1.7,5,2.14-5.06,2.13,5.06,1.7-5h1.46l-3,8.72-2.32-5.59-2.32,5.59Z"/><path class="cls-1" d="M551.49,31.42h5.11V32.8h-3.71V35h3v1.36h-3v2.3h3.71V40h-5.11Z"/><path class="cls-1" d="M562.49,36.37h-.81V40h-1.41V31.42h2.8a2.52,2.52,0,0,1,2.74,2.48A2.4,2.4,0,0,1,564,36.24l2.74,3.8h-1.69Zm.44-1.22c1,0,1.45-.48,1.45-1.21s-.48-1.22-1.45-1.22h-1.25v2.43Z"/><path class="cls-1" d="M570,31.42h5.11V32.8h-3.7V35h3v1.36h-3v2.3h3.7V40H570Z"/><path class="cls-1" d="M578.8,31.42h2.73a4.31,4.31,0,1,1,0,8.62H578.8Zm2.73,7.31a3,3,0,1,0,0-6H580.2v6Z"/><path class="cls-1" d="M594.62,31.42h3a2.37,2.37,0,0,1,2.54,2.35,1.93,1.93,0,0,1-.8,1.68,2.18,2.18,0,0,1,1.38,2.11c0,1.51-1.2,2.48-2.86,2.48h-3.31Zm2.87,3.63a1.17,1.17,0,1,0,0-2.33H596v2.33Zm.44,3.68c1,0,1.44-.53,1.44-1.23s-.47-1.25-1.44-1.25H596v2.48Z"/><path class="cls-1" d="M605.87,36.41l-3.16-5h1.65L606.58,35l2.22-3.56h1.66l-3.18,5V40h-1.41Z"/><path class="cls-1" d="M670,60.61h3.61A3.43,3.43,0,0,1,677.06,64v2.11h-7Z"/><path class="cls-1" d="M575.64,60.61h3.62a3.38,3.38,0,0,1,2.41,1,3.12,3.12,0,0,1,1,2.36V95.18h-7Z"/><path class="cls-1" d="M605,86.94h5a11,11,0,0,1-4.22,6.43A12.78,12.78,0,0,1,598,95.68a11.21,11.21,0,0,1-9-3.72q-3.21-3.61-3.21-10.35,0-6.42,3.11-10a11.21,11.21,0,0,1,8.95-3.72q6,0,9.34,3.62c2.14,2.48,3.21,5.92,3.21,10.35v1.1a1.63,1.63,0,0,1-.1.7H593a7,7,0,0,0,1.51,4.63,4.76,4.76,0,0,0,3.92,1.6,5.65,5.65,0,0,0,2.91-.7,1.36,1.36,0,0,0,.55-.35l.56-.55a2,2,0,0,1,.75-.81A3,3,0,0,1,605,86.94ZM593,79.1h10.25a6.45,6.45,0,0,0-1.41-4,4.84,4.84,0,0,0-3.71-1.4,4.92,4.92,0,0,0-3.62,1.4A5.78,5.78,0,0,0,593,79.1Z"/><path class="cls-1" d="M637.45,95.18h-3.51a3.27,3.27,0,0,1-3.42-3.42V78.1a4.14,4.14,0,0,0-1.46-3.52,5.24,5.24,0,0,0-3.26-1.1,5,5,0,0,0-3.22,1.1,4.2,4.2,0,0,0-1.4,3.52V95.18h-7V79.5q0-6.82,3.57-9.14a15.56,15.56,0,0,1,7.89-2.51,15.09,15.09,0,0,1,8.13,2.31q3.72,2.31,3.72,9.34Z"/><path class="cls-1" d="M658.81,60.51h3.42a3.22,3.22,0,0,1,2.41,1.06,3.34,3.34,0,0,1,1,2.36V83.52q0,7.14-4.12,9.65a16.93,16.93,0,0,1-8.95,2.51,16,16,0,0,1-5.12-.85,8.41,8.41,0,0,1-4-2.77c-1.94-2.47-2.91-5.86-2.91-10.14s1-7.61,2.91-10.15a9.81,9.81,0,0,1,12.16-2.92A9.59,9.59,0,0,1,658.81,72Zm-11.45,21.1a10.43,10.43,0,0,0,1.51,6.13,5,5,0,0,0,4.32,2.11,4.89,4.89,0,0,0,4.22-2.11,11.12,11.12,0,0,0,1.4-6.13,9.68,9.68,0,0,0-1.5-5.72,5.27,5.27,0,0,0-4.32-2A4.77,4.77,0,0,0,648.87,76,9.16,9.16,0,0,0,647.36,81.61Z"/><path class="cls-1" d="M670,68.45h3.61a3.43,3.43,0,0,1,3.42,3.42V95.18h-7Z"/><path class="cls-1" d="M567.6,59.9l-21-14.06a4.42,4.42,0,0,0-4.88,0l-21.67,14a4.44,4.44,0,0,0-2,3.72V91.24a4.43,4.43,0,0,0,4.43,4.44h42.65a4.44,4.44,0,0,0,4.44-4.44V63.58A4.42,4.42,0,0,0,567.6,59.9Zm-6.91,26.91H548.24V73.89h-8.87V86.81H526.92V66l17.19-11.15L560.69,66Z"/><rect class="cls-1" x="488.75" y="31.42" width="0.53" height="64.26"/><path class="cls-1" d="M103.89,60.37h5.69V74.8h17.27V60.37h5.69V95.21h-5.69V80.3H109.58V95.21h-5.69Z"/><path class="cls-1" d="M143.19,77.79A17.82,17.82,0,1,1,161,95.61,17.66,17.66,0,0,1,143.19,77.79Zm29.84,0c0-7-5.16-12.41-12-12.41s-12,5.44-12,12.41,5.16,12.42,12,12.42S173,84.76,173,77.79Z"/><path class="cls-1" d="M189.47,60l17.12,18.25L223.72,60V95.21H218V73.82L206.59,86.18,195.16,73.82V95.21h-5.69Z"/><path class="cls-1" d="M236.38,60.37H257V66h-15V74.8h12v5.5h-12v9.32h15v5.59H236.38Z"/><path class="cls-1" d="M284.18,60.37h5.69v29.2h14.67v5.64H284.18Z"/><path class="cls-1" d="M310,77.79A17.82,17.82,0,1,1,327.8,95.61,17.65,17.65,0,0,1,310,77.79Zm29.83,0c0-7-5.15-12.41-12-12.41s-12,5.44-12,12.41,5.15,12.42,12,12.42S339.82,84.76,339.82,77.79Z"/><path class="cls-1" d="M367.31,60l17,35.23H378.2l-3.63-7.75H360l-3.63,7.75h-6.08Zm-4.86,22.28h9.66L367.31,72Z"/><path class="cls-1" d="M399.3,73V95.21h-5.69V60l23.8,22.62V60.37h5.69V95.61Z"/><path class="cls-1" d="M432.87,89.67,437.18,86a9.59,9.59,0,0,0,7.37,4.17c3.38,0,5.34-1.52,5.34-4s-1.62-4.12-5.05-5.64l-2.75-1.18c-5.25-2.3-7.85-5.64-7.85-10.15,0-5.6,5.05-9.23,10.35-9.23a12,12,0,0,1,9.77,4.42l-3.93,4.07c-1.81-2.16-3.38-3.09-5.88-3.09s-4.62,1.37-4.62,3.78c0,2.25,1.57,3.87,5.06,5.35l2.7,1.22c4.76,2.06,8,5.11,8,10,0,5.89-4.36,9.92-11.09,9.92C439.34,95.61,435.07,93.25,432.87,89.67Z"/></g></g></svg>