<svg id="Layer_1" data-name="Layer 1" xmlns="http://www.w3.org/2000/svg" xmlns:xlink="http://www.w3.org/1999/xlink" width="142" height="142" viewBox="0 0 142 142"><defs><clipPath id="clip-path"><path d="M11.1738,71.9089c2.15,2.3574,26.2871,4.8291,59.8633,4.8291,34.3047,0,57.43-2.4668,59.832-4.8057-4.1513-18.4287-29.8056-32.2949-59.832-32.2949C40.9785,39.6374,15.3047,53.4958,11.1738,71.9089Z" fill="none"/></clipPath></defs><title>icon-region-north-canberra</title><g clip-path="url(#clip-path)"><rect x="10.6377" y="38.6374" width="120.7715" height="1" fill="#8c59fc"/><rect x="9.9996" y="39" width="122" height="39" fill="none"/><rect x="10.6377" y="41.568" width="120.7715" height="1" fill="#8c59fc"/><rect x="9.9996" y="39" width="122" height="39" fill="none"/><rect x="9.9996" y="39" width="122" height="39" fill="none"/><rect x="9.9996" y="39" width="122" height="39" fill="none"/><rect x="10.6377" y="50.361" width="120.7715" height="1" fill="#8c59fc"/><rect x="9.9996" y="39" width="122" height="39" fill="none"/><rect x="10.6377" y="53.2917" width="120.7715" height="1" fill="#8c59fc"/><rect x="9.9996" y="39" width="122" height="39" fill="none"/><rect x="10.6377" y="56.2223" width="120.7715" height="1" fill="#8c59fc"/><rect x="9.9996" y="39" width="122" height="39" fill="none"/><rect x="10.6377" y="59.153" width="120.7715" height="1" fill="#8c59fc"/><rect x="9.9996" y="39" width="122" height="39" fill="none"/><rect x="9.9996" y="39" width="122" height="39" fill="none"/><rect x="9.9996" y="39" width="122" height="39" fill="none"/><rect x="9.9996" y="39" width="122" height="39" fill="none"/><rect x="9.9996" y="39" width="122" height="39" fill="none"/><rect x="9.9996" y="39" width="122" height="39" fill="none"/><rect x="10.6377" y="76.738" width="120.7715" height="1" fill="#8c59fc"/><rect x="9.9996" y="39" width="122" height="39" fill="none"/><rect x="9.9996" y="39" width="122" height="39" fill="none"/><path d="M86.9216,77.167c0-8.0584-7.1789-14.591-16.034-14.591s-16.033,6.5326-16.033,14.591" fill="none" fill-rule="evenodd"/><path d="M87.4219,77.1667h-1c0-7.77-6.9688-14.0908-15.5342-14.0908S55.3545,69.3971,55.3545,77.1667h-1c0-8.3213,7.417-15.0908,16.5332-15.0908S87.4219,68.8454,87.4219,77.1667Z" fill="#8c59fc"/><path d="M52.7936,77.2379c1.899-8.3461-1.9359-15.1422-8.5659-15.1793S27.3586,68.757,25.46,77.1035" fill="none" fill-rule="evenodd"/><path d="M53.28,77.3493l-.9746-.2227c1.0381-4.56.3662-8.7734-1.8438-11.5586a7.7623,7.7623,0,0,0-6.2373-3.01h-.0557c-6.7158,0-16.4209,6.7392-18.2216,14.6562l-.9746-.2226c1.8964-8.336,12.1211-15.4336,19.1982-15.4336h.06a8.8459,8.8459,0,0,1,7.0146,3.3877C53.6445,67.97,54.3857,72.4909,53.28,77.3493Z" fill="#8c59fc"/><path d="M89.1086,77.2379c-1.899-8.3461,1.9361-15.1422,8.5661-15.1793s16.8689,6.6984,18.7679,15.0449" fill="none" fill-rule="evenodd"/><path d="M88.6211,77.3493c-1.1055-4.8584-.3633-9.38,2.0361-12.4033a8.8459,8.8459,0,0,1,7.0147-3.3877h.0586c7.0771,0,17.3017,7.0976,19.1992,15.4336l-.9746.2226c-1.8018-7.916-11.5059-14.6562-18.2217-14.6562h-.0557a7.7623,7.7623,0,0,0-6.2373,3.01c-2.21,2.7842-2.8818,6.9981-1.8447,11.5586Z" fill="#8c59fc"/><path d="M118.4636,76.66c-3.042-6.36-2.7209-11.887.7171-12.3457s8.2739,4.2286,11.3159,10.5882" fill="none" fill-rule="evenodd"/><path d="M118.0127,76.8757c-2.1836-4.5645-2.74-8.878-1.4541-11.2569a3.3267,3.3267,0,0,1,2.5557-1.8c3.6132-.4844,8.5908,4.0889,11.8339,10.8672l-.9023.4316c-3.0107-6.2959-7.6582-10.7294-10.7988-10.3076a2.3284,2.3284,0,0,0-1.8086,1.2852c-1.12,2.07-.54,6.1318,1.4765,10.3486Z" fill="#8c59fc"/><path d="M23.3116,76.66c3.042-6.36,2.721-11.887-.716-12.3457s-8.2749,4.2286-11.3169,10.5882" fill="none" fill-rule="evenodd"/><path d="M23.7637,76.8757l-.9024-.4317c2.0166-4.2158,2.5967-8.2783,1.4756-10.3486A2.3252,2.3252,0,0,0,22.5293,64.81c-3.1514-.43-7.7871,4.0127-10.8,10.3076l-.9024-.4316C14.07,67.9079,19.041,63.3581,22.6621,63.818a3.3269,3.3269,0,0,1,2.5547,1.8008C26.5039,67.9977,25.9473,72.3112,23.7637,76.8757Z" fill="#8c59fc"/><path d="M84.4767,77.167c0-6.83-6.0841-12.366-13.5891-12.366S57.3,70.3374,57.3,77.167" fill="none" fill-rule="evenodd"/><path d="M84.9766,77.1667h-1c0-6.543-5.8721-11.8653-13.0889-11.8653S57.8,70.6237,57.8,77.1667h-1c0-7.0938,6.3193-12.8653,14.0879-12.8653S84.9766,70.0729,84.9766,77.1667Z" fill="#8c59fc"/><path d="M52.8456,77.2379c1.6951-8.3461-1.7279-15.1422-7.6439-15.1793S30.15,68.757,28.4546,77.1035" fill="none" fill-rule="evenodd"/><path d="M53.3359,77.3376l-.98-.1992c.9765-4.8038.2343-9.3028-1.9834-12.0342a6.5579,6.5579,0,0,0-5.1729-2.5459h-.05c-5.9687,0-14.5986,6.7343-16.2041,14.6445l-.98-.1992c1.6944-8.3418,10.8487-15.4453,17.1875-15.4453h.0528a7.5272,7.5272,0,0,1,5.9433,2.916C53.5527,67.4352,54.37,72.2438,53.3359,77.3376Z" fill="#8c59fc"/><path d="M23.6917,76.66c2.489-6.36,2.2259-11.887-.5861-12.3457s-6.77,4.2286-9.2589,10.5882" fill="none" fill-rule="evenodd"/><path d="M24.1572,76.8425l-.9316-.3653c1.7451-4.457,2.1709-8.7617,1.06-10.7119a1.7518,1.7518,0,0,0-1.26-.958c-2.4932-.4033-6.3008,4.11-8.7129,10.2773l-.9316-.3652c2.2851-5.8359,6.3955-11.4785,9.8046-10.8984A2.7575,2.7575,0,0,1,25.1543,65.27C26.4258,67.5026,26.0352,72.0446,24.1572,76.8425Z" fill="#8c59fc"/><path d="M118.0557,76.6892c-2.4881-6.36-2.2261-11.8872.5869-12.3457s6.77,4.2287,9.258,10.5883" fill="none" fill-rule="evenodd"/><path d="M117.5908,76.8717c-1.8779-4.7978-2.2685-9.34-.997-11.5722a2.7573,2.7573,0,0,1,1.9687-1.4492c3.4131-.5723,7.52,5.0615,9.8037,10.8984l-.9316.3652c-2.4121-6.165-6.209-10.6748-8.7119-10.2773a1.7516,1.7516,0,0,0-1.26.958c-1.1113,1.95-.6856,6.2549,1.06,10.7119Z" fill="#8c59fc"/><path d="M89.0407,77.2379c-1.6331-8.3461,1.6639-15.1422,7.363-15.1793s14.501,6.6984,16.1339,15.0449" fill="none" fill-rule="evenodd"/><path d="M88.55,77.3337c-1.0166-5.1953-.1836-10.0577,2.2285-13.0049a7.162,7.162,0,0,1,5.6231-2.77h.0507c6.1143,0,14.9434,7.1045,16.5752,15.4492l-.98.1914c-1.5479-7.9072-9.8506-14.6406-15.5918-14.6406h-.0479a6.1925,6.1925,0,0,0-4.8554,2.4033c-2.2247,2.72-2.9805,7.2734-2.0215,12.1807Z" fill="#8c59fc"/><path d="M74.0817,43.5343c0-.5143-.9211-.9313-2.057-.9313s-2.057.417-2.057.9313.921.9313,2.057.9313,2.057-.4167,2.057-.9313" fill="none" fill-rule="evenodd"/><path d="M69.4678,43.5339c0,.8291,1.0752,1.4316,2.5566,1.4316,1.27,0,2.5576-.4922,2.5576-1.4316C74.582,41.655,69.4678,41.655,69.4678,43.5339Zm2.5566.4316a2.3374,2.3374,0,0,1-1.56-.4131,2.07,2.07,0,0,1,1.56-.4492,2.2033,2.2033,0,0,1,1.55.4307A2.1926,2.1926,0,0,1,72.0244,43.9655Z" fill="#8c59fc"/><path d="M42.5306,46.9292c-.1309-.3839-.925-.34-1.7719.0979s-1.43,1.1043-1.298,1.4882.9249.34,1.7729-.0979,1.429-1.1042,1.297-1.4882" fill="none" fill-rule="evenodd"/><path d="M39.998,49.276a1.3787,1.3787,0,0,1-.51-.0878.8459.8459,0,0,1-.501-.5108c-.2588-.7588.6172-1.6182,1.541-2.0947a2.5742,2.5742,0,0,1,1.9737-.3262.8477.8477,0,0,1,.5019.5108l.001.0009c.2578.7569-.6182,1.6162-1.542,2.0938A3.3337,3.3337,0,0,1,39.998,49.276Zm1.9942-2.1093a2.3778,2.3778,0,0,0-1.0049.3047,2.6121,2.6121,0,0,0-.9883.8056,2.37,2.37,0,0,0,1.0049-.3037A2.6118,2.6118,0,0,0,41.9922,47.1667Z" fill="#8c59fc"/><path d="M103.5205,46.5827a2.5745,2.5745,0,0,0-1.9736-.3262.8459.8459,0,0,0-.501.5108l-.001.0009c-.2588.7569.6172,1.6162,1.542,2.0938a3.33,3.33,0,0,0,1.4639.414,1.38,1.38,0,0,0,.5107-.0878.8467.8467,0,0,0,.5-.5108C105.3223,47.9186,104.4453,47.0592,103.5205,46.5827Zm.5371,1.6943a2.3574,2.3574,0,0,1-1.0117-.3037,2.6269,2.6269,0,0,1-.9893-.8066,2.374,2.374,0,0,1,1.0049.3047,2.8817,2.8817,0,0,1,1.01.8056Z" fill="#8c59fc"/><path d="M92.0786,45.8318c.119-.4929-.666-1.2162-1.755-1.6153s-2.068-.3232-2.188.17.666,1.2162,1.755,1.6153,2.068.3231,2.188-.17" fill="none" fill-rule="evenodd"/><path d="M90.4951,43.7467a3.0739,3.0739,0,0,0-2.3447-.0986.9444.9444,0,0,0-.5.62c-.2129.87.8789,1.7666,2.0684,2.2032a4.3258,4.3258,0,0,0,1.455.2861,1.8933,1.8933,0,0,0,.8887-.1875.9474.9474,0,0,0,.501-.62l.001-.001C92.7842,45.0378,91.6465,44.17,90.4951,43.7467Zm-.4326,1.7852a2.9252,2.9252,0,0,1-1.4609-.9883.7648.7648,0,0,1,.43-.083,3.3222,3.3222,0,0,1,1.12.2256A2.5886,2.5886,0,0,1,91.582,45.695,2.3453,2.3453,0,0,1,90.0625,45.5319Z" fill="#8c59fc"/><path d="M52.2246,45.8318c-.12-.4929.666-1.2162,1.755-1.6153s2.068-.3232,2.187.17-.665,1.2162-1.754,1.6153-2.068.3231-2.188-.17" fill="none" fill-rule="evenodd"/><path d="M56.6533,44.2692a.9484.9484,0,0,0-.501-.6211,3.0739,3.0739,0,0,0-2.3447.0986c-1.1514.4229-2.289,1.2911-2.0693,2.2022l.001.001a.9472.9472,0,0,0,.5009.62,1.8936,1.8936,0,0,0,.8887.1875,4.3263,4.3263,0,0,0,1.4551-.2861C55.7734,46.0348,56.8652,45.1384,56.6533,44.2692ZM54.24,45.5319a2.36,2.36,0,0,1-1.52.1631,2.5886,2.5886,0,0,1,1.4307-1.0088,2.7086,2.7086,0,0,1,1.5273-.1973C55.67,44.6335,55.2139,45.1755,54.24,45.5319Z" fill="#8c59fc"/><path d="M88.6016,44.5436a.3387.3387,0,0,1,.1125-.0449h-33.04a2.3668,2.3668,0,0,1-1.3615,1H89.99A2.9171,2.9171,0,0,1,88.6016,44.5436Z" fill="#8c59fc"/><path d="M89.4122,44.4987a3.6184,3.6184,0,0,1,.7392.1875,3.22,3.22,0,0,1,1.2986.8125h39.9592v-1Z" fill="#8c59fc"/><path d="M54.3007,44.571a3.6184,3.6184,0,0,0-.7392.1875,3.22,3.22,0,0,0-1.2986.8125H12.3037v-1Z" fill="#8c59fc"/><path d="M102.9692,47.4294c.0318.0152.0595.025.0923.042a2.8817,2.8817,0,0,1,1.01.8056h-.0137a2.3574,2.3574,0,0,1-1.0117-.3037,3.0818,3.0818,0,0,1-.7632-.5439H41.7668a3.07,3.07,0,0,1-.7629.5439,2.37,2.37,0,0,1-1.0049.3037,2.6121,2.6121,0,0,1,.9883-.8056c.0328-.017.0606-.0268.0923-.042H10.6377v1H131.4092v-1Z" fill="#8c59fc"/><path d="M101.2754,62.0837a19.8978,19.8978,0,0,1,2.8176,1h27.3162v-1Z" fill="#8c59fc"/><path d="M94.63,62.0837H71.0474a17.0411,17.0411,0,0,1,5.5788,1H92.6721A8.6732,8.6732,0,0,1,94.63,62.0837Z" fill="#8c59fc"/><path d="M90.6105,65.0143H80.4487q.6912.4684,1.326,1h8.1521A10.3272,10.3272,0,0,1,90.6105,65.0143Z" fill="#8c59fc"/><path d="M89.0071,67.946h-5.26c.2777.3241.5448.6563.7948,1h4.1187C88.7579,68.6008,88.8843,68.2745,89.0071,67.946Z" fill="#8c59fc"/><path d="M88.2793,70.8766H85.7266c.1726.3289.34.66.4875,1H88.17C88.1937,71.5373,88.2346,71.206,88.2793,70.8766Z" fill="#8c59fc"/><path d="M88.1372,73.8073H86.8879c.0916.3307.178.6622.2459,1h1.093C88.1943,74.4731,88.1514,74.1356,88.1372,73.8073Z" fill="#8c59fc"/><path d="M123.2083,65.0143a13.2067,13.2067,0,0,1,1.3647,1h6.8362v-1Z" fill="#8c59fc"/><path d="M116.5586,65.6188a3.8313,3.8313,0,0,1,.4163-.6045h-9.3172q.7255.4738,1.4263,1h7.3146C116.4541,65.8846,116.4937,65.7389,116.5586,65.6188Z" fill="#8c59fc"/><path d="M115.9268,67.946H111.356q.5124.4871.9929,1h3.5323A9.608,9.608,0,0,1,115.9268,67.946Z" fill="#8c59fc"/><path d="M126.5522,67.946c.2842.3188.566.6506.844,1h4.013v-1Z" fill="#8c59fc"/><path d="M116.0647,70.8766h-2.0879c.2434.3269.4666.6626.6875,1h1.5791C116.1675,71.5341,116.1171,71.2059,116.0647,70.8766Z" fill="#8c59fc"/><path d="M128.7931,70.8766q.3219.4866.6317,1h1.9844v-1Z" fill="#8c59fc"/><path d="M116.7834,73.8073H115.781c.1611.329.2959.6645.4325,1h.9249C117.0115,74.471,116.8914,74.137,116.7834,73.8073Z" fill="#8c59fc"/><path d="M130.5049,73.8073c.15.29.3.58.4433.8789l-.2531.1211h.7141v-1Z" fill="#8c59fc"/><path d="M40.626,62.0837H10.6377v1H37.8083A19.9122,19.9122,0,0,1,40.626,62.0837Z" fill="#8c59fc"/><path d="M47.2727,62.0837a8.6711,8.6711,0,0,1,1.9575,1H65.15a17.0391,17.0391,0,0,1,5.5783-1Z" fill="#8c59fc"/><path d="M51.2919,65.0143a10.3605,10.3605,0,0,1,.6834,1h8.0262q.6363-.53,1.3259-1Z" fill="#8c59fc"/><path d="M52.895,67.946c.1228.3285.249.6548.3461,1H57.234c.25-.3437.517-.6759.7948-1Z" fill="#8c59fc"/><path d="M53.6226,70.8766c.0446.3294.0854.6607.1092,1h1.8305c.1477-.34.3149-.6711.4875-1Z" fill="#8c59fc"/><path d="M53.7642,73.8073c-.0142.3283-.057.6658-.0894,1h.9678c.0678-.3378.1543-.6693.2458-1Z" fill="#8c59fc"/><path d="M19.7429,65.0143H10.6377v1h7.9985A11.259,11.259,0,0,1,19.7429,65.0143Z" fill="#8c59fc"/><path d="M24.9744,65.0143c.0595.086.1259.1614.18.2559a4.6861,4.6861,0,0,1,.3155.7441h7.3477q.7-.5264,1.4262-1Z" fill="#8c59fc"/><path d="M25.8423,67.946c.0246.3221.042.65.0389,1h3.6715q.4815-.5138.9928-1Z" fill="#8c59fc"/><path d="M25.7351,70.8766c-.0427.3294-.085.6573-.1471,1h1.6495c.2209-.3374.4441-.6731.6875-1Z" fill="#8c59fc"/><path d="M25.1469,73.8073c-.0886.3309-.18.6627-.284,1h.8257c.1366-.3355.2714-.671.4324-1Z" fill="#8c59fc"/><path d="M10.8271,74.6862c.1432-.2993.2937-.5886.4434-.8789h-.6328v1H11.08Z" fill="#8c59fc"/><path d="M12.9832,70.8766H10.6377v1h1.7134Q12.6619,71.3644,12.9832,70.8766Z" fill="#8c59fc"/><path d="M15.2272,67.946H10.6377v1h3.7441C14.66,68.5965,14.9426,68.2648,15.2272,67.946Z" fill="#8c59fc"/></g><polygon points="19.26 111.38 18.72 110.515 54.735 76.778 55.419 77.508 19.26 111.38" fill="#8c59fc"/><polygon points="122.736 111.377 86.581 77.508 87.265 76.778 123.28 110.515 122.736 111.377" fill="#8c59fc"/><path d="M71.0371,77.738c-28.0137,0-58.8555-1.92-60.8359-5.4776l-.0918-.164.039-.1846c4.0772-18.97,30.2539-33.2744,60.8887-33.2744,30.6143,0,56.7783,14.3242,60.8613,33.3183l.044.2051-.1153.1758C129.5166,75.8444,98.7822,77.738,71.0371,77.738ZM11.1738,71.9089c2.15,2.3574,26.2871,4.8291,59.8633,4.8291,34.3047,0,57.43-2.4668,59.832-4.8057-4.1513-18.4287-29.8056-32.2949-59.832-32.2949C40.9785,39.6374,15.3047,53.4958,11.1738,71.9089Z" fill="#8c59fc"/><path d="M71,137.5A66.5,66.5,0,1,1,137.5,71,66.5757,66.5757,0,0,1,71,137.5Zm0-132A65.5,65.5,0,1,0,136.5,71,65.5737,65.5737,0,0,0,71,5.5Z" fill="#8c59fc"/></svg>