<svg id="Layer_1" data-name="Layer 1" xmlns="http://www.w3.org/2000/svg" xmlns:xlink="http://www.w3.org/1999/xlink" width="142" height="142" viewBox="0 0 142 142"><defs><clipPath id="clip-path"><circle cx="71" cy="71" r="66" fill="none"/></clipPath><clipPath id="clip-path-2"><rect x="4" y="4" width="134" height="134" fill="none"/></clipPath><clipPath id="clip-path-3"><rect x="-2" y="19" width="146" height="103" fill="none"/></clipPath><clipPath id="clip-path-4"><rect x="5" y="5" width="132" height="132" fill="none"/></clipPath><clipPath id="clip-path-5"><rect x="16.686" y="106.4683" width="11.369" height="2.4059" fill="none"/></clipPath><clipPath id="clip-path-7"><rect x="50.0909" y="106.4683" width="11.3701" height="2.4059" fill="none"/></clipPath><clipPath id="clip-path-9"><rect x="83.4969" y="106.4683" width="11.37" height="2.4059" fill="none"/></clipPath><clipPath id="clip-path-11"><rect x="116.903" y="106.4683" width="11.37" height="2.4059" fill="none"/></clipPath><clipPath id="clip-path-16"><rect width="142" height="142" fill="none"/></clipPath></defs><title>icon-region-tuggeranong</title><rect x="60.9606" y="107.1686" width="23.0361" height="1" fill="#8c59fc"/><g clip-path="url(#clip-path)"><rect x="27.5554" y="107.1686" width="23.0352" height="1" fill="#8c59fc"/><g clip-path="url(#clip-path-2)"><g style="isolation:isolate"><g clip-path="url(#clip-path-3)"><g clip-path="url(#clip-path-4)"><polygon points="103.5 43.633 78.597 24.253 63.658 24.253 38.48 43.633 38.48 50.241 103.5 50.241 103.5 43.633" fill="none" stroke="#8c59fc" stroke-miterlimit="10"/><rect x="86.354" y="50.2407" width="17.1107" height="42.924" fill="none" stroke="#8c59fc" stroke-miterlimit="10"/><rect x="93.423" y="55.1666" width="3.4221" height="15.4527" fill="none" stroke="#8c59fc" stroke-miterlimit="10"/><rect x="91.712" y="77.9739" width="6.8442" height="10.1087" fill="none" stroke="#8c59fc" stroke-miterlimit="10"/><rect x="38.51" y="50.2407" width="17.1107" height="42.924" fill="none" stroke="#8c59fc" stroke-miterlimit="10"/><rect x="45.579" y="55.1666" width="3.4221" height="15.4527" fill="none" stroke="#8c59fc" stroke-miterlimit="10"/><rect x="43.8669" y="77.9739" width="6.8442" height="10.1087" fill="none" stroke="#8c59fc" stroke-miterlimit="10"/><path d="M63.2371,62.893A7.7525,7.7525,0,1,1,70.99,70.62,7.7394,7.7394,0,0,1,63.2371,62.893Z" fill="none" stroke="#8c59fc" stroke-miterlimit="10"/><line x1="63.6569" y1="24.2528" x2="63.6569" y2="46.124" fill="none" stroke="#8c59fc" stroke-miterlimit="10"/><line x1="78.5388" y1="24.2528" x2="78.5388" y2="46.124" fill="none" stroke="#8c59fc" stroke-miterlimit="10"/><line x1="103.5833" y1="46.124" x2="38.396" y2="46.124" fill="none" stroke="#8c59fc" stroke-miterlimit="10"/><line x1="64.231" y1="59.1093" x2="77.7478" y2="59.1093" fill="none" stroke="#8c59fc" stroke-miterlimit="10"/><line x1="74.6758" y1="56.1113" x2="74.6758" y2="69.6746" fill="none" stroke="#8c59fc" stroke-miterlimit="10"/><line x1="67.1028" y1="56.1113" x2="67.1028" y2="69.6746" fill="none" stroke="#8c59fc" stroke-miterlimit="10"/><line x1="64.092" y1="66.7738" x2="77.6089" y2="66.7738" fill="none" stroke="#8c59fc" stroke-miterlimit="10"/><line x1="64.231" y1="59.1093" x2="77.7478" y2="59.1093" fill="none" stroke="#8c59fc" stroke-miterlimit="10"/><line x1="74.6758" y1="56.1113" x2="74.6758" y2="69.6746" fill="none" stroke="#8c59fc" stroke-miterlimit="10"/><line x1="67.1028" y1="56.1113" x2="67.1028" y2="69.6746" fill="none" stroke="#8c59fc" stroke-miterlimit="10"/><line x1="64.092" y1="66.7738" x2="77.6089" y2="66.7738" fill="none" stroke="#8c59fc" stroke-miterlimit="10"/><rect x="8.489" y="96.8539" width="1.027" height="2.4832" fill="none" stroke="#8c59fc" stroke-miterlimit="10"/><rect x="19.7841" y="96.8539" width="1.0265" height="2.4832" fill="none" stroke="#8c59fc" stroke-miterlimit="10"/><rect x="31.079" y="96.8539" width="1.027" height="2.4832" fill="none" stroke="#8c59fc" stroke-miterlimit="10"/><rect x="42.375" y="96.8539" width="1.0265" height="2.4832" fill="none" stroke="#8c59fc" stroke-miterlimit="10"/><rect x="53.67" y="96.8539" width="1.027" height="2.4832" fill="none" stroke="#8c59fc" stroke-miterlimit="10"/><rect x="64.9659" y="96.8539" width="1.0265" height="2.4832" fill="none" stroke="#8c59fc" stroke-miterlimit="10"/><rect x="76.261" y="96.8539" width="1.027" height="2.4832" fill="none" stroke="#8c59fc" stroke-miterlimit="10"/><rect x="87.556" y="96.8539" width="1.027" height="2.4832" fill="none" stroke="#8c59fc" stroke-miterlimit="10"/><rect x="98.8521" y="96.8539" width="1.0265" height="2.4832" fill="none" stroke="#8c59fc" stroke-miterlimit="10"/><rect x="110.147" y="96.8539" width="1.0265" height="2.4832" fill="none" stroke="#8c59fc" stroke-miterlimit="10"/><rect x="121.442" y="96.8539" width="1.0265" height="2.4832" fill="none" stroke="#8c59fc" stroke-miterlimit="10"/><rect x="132.7371" y="96.8539" width="1.0265" height="2.4832" fill="none" stroke="#8c59fc" stroke-miterlimit="10"/><rect x="8.489" y="96.8539" width="1.027" height="2.4832" fill="none" stroke="#8c59fc" stroke-miterlimit="10"/><rect x="19.7841" y="96.8539" width="1.0265" height="2.4832" fill="none" stroke="#8c59fc" stroke-miterlimit="10"/><rect x="31.079" y="96.8539" width="1.027" height="2.4832" fill="none" stroke="#8c59fc" stroke-miterlimit="10"/><rect x="42.375" y="96.8539" width="1.0265" height="2.4832" fill="none" stroke="#8c59fc" stroke-miterlimit="10"/><rect x="53.67" y="96.8539" width="1.027" height="2.4832" fill="none" stroke="#8c59fc" stroke-miterlimit="10"/><rect x="64.9659" y="96.8539" width="1.0265" height="2.4832" fill="none" stroke="#8c59fc" stroke-miterlimit="10"/><rect x="76.261" y="96.8539" width="1.027" height="2.4832" fill="none" stroke="#8c59fc" stroke-miterlimit="10"/><rect x="87.556" y="96.8539" width="1.027" height="2.4832" fill="none" stroke="#8c59fc" stroke-miterlimit="10"/><rect x="98.8521" y="96.8539" width="1.0265" height="2.4832" fill="none" stroke="#8c59fc" stroke-miterlimit="10"/><rect x="110.147" y="96.8539" width="1.0265" height="2.4832" fill="none" stroke="#8c59fc" stroke-miterlimit="10"/><rect x="121.442" y="96.8539" width="1.0265" height="2.4832" fill="none" stroke="#8c59fc" stroke-miterlimit="10"/><rect x="132.7371" y="96.8539" width="1.0265" height="2.4832" fill="none" stroke="#8c59fc" stroke-miterlimit="10"/><rect x="3.577" y="114.1306" width="135.1503" height="2.4438" fill="none" stroke="#8c59fc" stroke-miterlimit="10"/><rect x="8.589" y="112.1089" width="1.5111" height="2.0217" fill="none" stroke="#8c59fc" stroke-miterlimit="10"/><rect x="26.267" y="112.1089" width="1.5111" height="2.0217" fill="none" stroke="#8c59fc" stroke-miterlimit="10"/><rect x="43.9449" y="112.1089" width="1.5111" height="2.0217" fill="none" stroke="#8c59fc" stroke-miterlimit="10"/><rect x="61.623" y="112.1089" width="1.5111" height="2.0217" fill="none" stroke="#8c59fc" stroke-miterlimit="10"/><rect x="79.301" y="112.1089" width="1.5111" height="2.0217" fill="none" stroke="#8c59fc" stroke-miterlimit="10"/><rect x="96.979" y="112.1089" width="1.5111" height="2.0217" fill="none" stroke="#8c59fc" stroke-miterlimit="10"/><rect x="114.657" y="112.1089" width="1.5111" height="2.0217" fill="none" stroke="#8c59fc" stroke-miterlimit="10"/><rect x="132.334" y="112.1089" width="1.5111" height="2.0217" fill="none" stroke="#8c59fc" stroke-miterlimit="10"/><rect x="8.589" y="112.1089" width="1.5111" height="2.0217" fill="none" stroke="#8c59fc" stroke-miterlimit="10"/><rect x="26.267" y="112.1089" width="1.5111" height="2.0217" fill="none" stroke="#8c59fc" stroke-miterlimit="10"/><rect x="43.9449" y="112.1089" width="1.5111" height="2.0217" fill="none" stroke="#8c59fc" stroke-miterlimit="10"/><rect x="61.623" y="112.1089" width="1.5111" height="2.0217" fill="none" stroke="#8c59fc" stroke-miterlimit="10"/><rect x="79.301" y="112.1089" width="1.5111" height="2.0217" fill="none" stroke="#8c59fc" stroke-miterlimit="10"/><rect x="96.979" y="112.1089" width="1.5111" height="2.0217" fill="none" stroke="#8c59fc" stroke-miterlimit="10"/><rect x="114.657" y="112.1089" width="1.5111" height="2.0217" fill="none" stroke="#8c59fc" stroke-miterlimit="10"/><rect x="132.334" y="112.1089" width="1.5111" height="2.0217" fill="none" stroke="#8c59fc" stroke-miterlimit="10"/><line x1="95.2208" y1="77.9738" x2="95.2208" y2="88.0825" fill="none" stroke="#8c59fc" stroke-miterlimit="10"/><line x1="98.6432" y1="81.0321" x2="91.799" y2="81.0321" fill="none" stroke="#8c59fc" stroke-miterlimit="10"/><line x1="98.6432" y1="85.0242" x2="91.799" y2="85.0242" fill="none" stroke="#8c59fc" stroke-miterlimit="10"/><rect x="60.676" y="77.9739" width="20.6276" height="10.1087" fill="none" stroke="#8c59fc" stroke-miterlimit="10"/><line x1="70.8499" y1="77.9738" x2="70.8499" y2="88.0825" fill="none" stroke="#8c59fc" stroke-miterlimit="10"/><line x1="67.4279" y1="77.9738" x2="67.4279" y2="88.0825" fill="none" stroke="#8c59fc" stroke-miterlimit="10"/><line x1="64.2678" y1="77.9738" x2="64.2678" y2="88.0825" fill="none" stroke="#8c59fc" stroke-miterlimit="10"/><line x1="74.2728" y1="77.9738" x2="74.2728" y2="88.0825" fill="none" stroke="#8c59fc" stroke-miterlimit="10"/><line x1="77.6089" y1="77.9738" x2="77.6089" y2="88.0825" fill="none" stroke="#8c59fc" stroke-miterlimit="10"/><line x1="81.3036" y1="81.0326" x2="60.676" y2="81.0326" fill="none" stroke="#8c59fc" stroke-miterlimit="10"/><line x1="81.3036" y1="85.0237" x2="60.676" y2="85.0237" fill="none" stroke="#8c59fc" stroke-miterlimit="10"/><rect x="60.676" y="77.9739" width="20.6276" height="10.1087" fill="none" stroke="#8c59fc" stroke-miterlimit="10"/><line x1="70.8499" y1="77.9738" x2="70.8499" y2="88.0825" fill="none" stroke="#8c59fc" stroke-miterlimit="10"/><line x1="67.4279" y1="77.9738" x2="67.4279" y2="88.0825" fill="none" stroke="#8c59fc" stroke-miterlimit="10"/><line x1="64.2678" y1="77.9738" x2="64.2678" y2="88.0825" fill="none" stroke="#8c59fc" stroke-miterlimit="10"/><line x1="74.2728" y1="77.9738" x2="74.2728" y2="88.0825" fill="none" stroke="#8c59fc" stroke-miterlimit="10"/><line x1="77.6089" y1="77.9738" x2="77.6089" y2="88.0825" fill="none" stroke="#8c59fc" stroke-miterlimit="10"/><line x1="81.3036" y1="81.0326" x2="60.676" y2="81.0326" fill="none" stroke="#8c59fc" stroke-miterlimit="10"/><line x1="81.3036" y1="85.0237" x2="60.676" y2="85.0237" fill="none" stroke="#8c59fc" stroke-miterlimit="10"/><line x1="47.2898" y1="77.9738" x2="47.2898" y2="88.0825" fill="none" stroke="#8c59fc" stroke-miterlimit="10"/><line x1="50.7112" y1="81.0321" x2="43.8669" y2="81.0321" fill="none" stroke="#8c59fc" stroke-miterlimit="10"/><line x1="50.7112" y1="85.0242" x2="43.8669" y2="85.0242" fill="none" stroke="#8c59fc" stroke-miterlimit="10"/><rect x="3.252" y="71.7029" width="35.1444" height="21.4618" fill="none" stroke="#8c59fc" stroke-miterlimit="10"/><rect x="6.739" y="77.9739" width="6.8442" height="10.1087" fill="none" stroke="#8c59fc" stroke-miterlimit="10"/><line x1="10.1609" y1="77.9738" x2="10.1609" y2="88.0825" fill="none" stroke="#8c59fc" stroke-miterlimit="10"/><line x1="13.5833" y1="81.0321" x2="6.739" y2="81.0321" fill="none" stroke="#8c59fc" stroke-miterlimit="10"/><line x1="13.5833" y1="85.0242" x2="6.739" y2="85.0242" fill="none" stroke="#8c59fc" stroke-miterlimit="10"/><rect x="17.402" y="77.9739" width="6.8442" height="10.1087" fill="none" stroke="#8c59fc" stroke-miterlimit="10"/><line x1="20.8239" y1="77.9738" x2="20.8239" y2="88.0825" fill="none" stroke="#8c59fc" stroke-miterlimit="10"/><line x1="24.2462" y1="81.0321" x2="17.402" y2="81.0321" fill="none" stroke="#8c59fc" stroke-miterlimit="10"/><line x1="24.2462" y1="85.0242" x2="17.402" y2="85.0242" fill="none" stroke="#8c59fc" stroke-miterlimit="10"/><rect x="28.0649" y="77.9739" width="6.8442" height="10.1087" fill="none" stroke="#8c59fc" stroke-miterlimit="10"/><line x1="31.4868" y1="77.9738" x2="31.4868" y2="88.0825" fill="none" stroke="#8c59fc" stroke-miterlimit="10"/><line x1="34.9092" y1="81.0321" x2="28.0649" y2="81.0321" fill="none" stroke="#8c59fc" stroke-miterlimit="10"/><line x1="34.9092" y1="85.0242" x2="28.0649" y2="85.0242" fill="none" stroke="#8c59fc" stroke-miterlimit="10"/><rect x="6.739" y="77.9739" width="6.8442" height="10.1087" fill="none" stroke="#8c59fc" stroke-miterlimit="10"/><line x1="10.1609" y1="77.9738" x2="10.1609" y2="88.0825" fill="none" stroke="#8c59fc" stroke-miterlimit="10"/><line x1="13.5833" y1="81.0321" x2="6.739" y2="81.0321" fill="none" stroke="#8c59fc" stroke-miterlimit="10"/><line x1="13.5833" y1="85.0242" x2="6.739" y2="85.0242" fill="none" stroke="#8c59fc" stroke-miterlimit="10"/><rect x="17.402" y="77.9739" width="6.8442" height="10.1087" fill="none" stroke="#8c59fc" stroke-miterlimit="10"/><line x1="20.8239" y1="77.9738" x2="20.8239" y2="88.0825" fill="none" stroke="#8c59fc" stroke-miterlimit="10"/><line x1="24.2462" y1="81.0321" x2="17.402" y2="81.0321" fill="none" stroke="#8c59fc" stroke-miterlimit="10"/><line x1="24.2462" y1="85.0242" x2="17.402" y2="85.0242" fill="none" stroke="#8c59fc" stroke-miterlimit="10"/><rect x="28.0649" y="77.9739" width="6.8442" height="10.1087" fill="none" stroke="#8c59fc" stroke-miterlimit="10"/><line x1="31.4868" y1="77.9738" x2="31.4868" y2="88.0825" fill="none" stroke="#8c59fc" stroke-miterlimit="10"/><line x1="34.9092" y1="81.0321" x2="28.0649" y2="81.0321" fill="none" stroke="#8c59fc" stroke-miterlimit="10"/><line x1="34.9092" y1="85.0242" x2="28.0649" y2="85.0242" fill="none" stroke="#8c59fc" stroke-miterlimit="10"/><polygon points="20.823 66.54 15.371 66.54 18.097 64.247 20.823 61.954 23.55 64.247 26.277 66.54 20.823 66.54" fill="none" stroke="#8c59fc" stroke-miterlimit="10"/><polyline points="25.96 66.54 25.96 68.841 15.687 68.841 15.687 66.54" fill="none" stroke="#8c59fc" stroke-miterlimit="10"/><polyline points="27.057 71.741 27.057 69 14.59 69 14.59 71.741" fill="none" stroke="#8c59fc" stroke-miterlimit="10"/><line x1="16.8639" y1="68.9999" x2="16.8639" y2="71.7024" fill="none" stroke="#8c59fc" stroke-miterlimit="10"/><line x1="24.8258" y1="68.9999" x2="24.8258" y2="71.7024" fill="none" stroke="#8c59fc" stroke-miterlimit="10"/><rect x="103.465" y="71.7029" width="35.1444" height="21.4618" fill="none" stroke="#8c59fc" stroke-miterlimit="10"/><rect x="106.952" y="77.9739" width="6.8442" height="10.1087" fill="none" stroke="#8c59fc" stroke-miterlimit="10"/><line x1="110.3749" y1="77.9738" x2="110.3749" y2="88.0825" fill="none" stroke="#8c59fc" stroke-miterlimit="10"/><line x1="113.7963" y1="81.0321" x2="106.952" y2="81.0321" fill="none" stroke="#8c59fc" stroke-miterlimit="10"/><line x1="113.7963" y1="85.0242" x2="106.952" y2="85.0242" fill="none" stroke="#8c59fc" stroke-miterlimit="10"/><rect x="117.615" y="77.9739" width="6.8442" height="10.1087" fill="none" stroke="#8c59fc" stroke-miterlimit="10"/><line x1="121.0369" y1="77.9738" x2="121.0369" y2="88.0825" fill="none" stroke="#8c59fc" stroke-miterlimit="10"/><line x1="124.4592" y1="81.0321" x2="117.615" y2="81.0321" fill="none" stroke="#8c59fc" stroke-miterlimit="10"/><line x1="124.4592" y1="85.0242" x2="117.615" y2="85.0242" fill="none" stroke="#8c59fc" stroke-miterlimit="10"/><rect x="128.2791" y="77.9739" width="6.8442" height="10.1087" fill="none" stroke="#8c59fc" stroke-miterlimit="10"/><line x1="131.7008" y1="77.9738" x2="131.7008" y2="88.0825" fill="none" stroke="#8c59fc" stroke-miterlimit="10"/><line x1="135.1222" y1="81.0321" x2="128.278" y2="81.0321" fill="none" stroke="#8c59fc" stroke-miterlimit="10"/><line x1="135.1222" y1="85.0242" x2="128.278" y2="85.0242" fill="none" stroke="#8c59fc" stroke-miterlimit="10"/><rect x="106.952" y="77.9739" width="6.8442" height="10.1087" fill="none" stroke="#8c59fc" stroke-miterlimit="10"/><line x1="110.3749" y1="77.9738" x2="110.3749" y2="88.0825" fill="none" stroke="#8c59fc" stroke-miterlimit="10"/><line x1="113.7963" y1="81.0321" x2="106.952" y2="81.0321" fill="none" stroke="#8c59fc" stroke-miterlimit="10"/><line x1="113.7963" y1="85.0242" x2="106.952" y2="85.0242" fill="none" stroke="#8c59fc" stroke-miterlimit="10"/><rect x="117.615" y="77.9739" width="6.8442" height="10.1087" fill="none" stroke="#8c59fc" stroke-miterlimit="10"/><line x1="121.0369" y1="77.9738" x2="121.0369" y2="88.0825" fill="none" stroke="#8c59fc" stroke-miterlimit="10"/><line x1="124.4592" y1="81.0321" x2="117.615" y2="81.0321" fill="none" stroke="#8c59fc" stroke-miterlimit="10"/><line x1="124.4592" y1="85.0242" x2="117.615" y2="85.0242" fill="none" stroke="#8c59fc" stroke-miterlimit="10"/><rect x="128.2791" y="77.9739" width="6.8442" height="10.1087" fill="none" stroke="#8c59fc" stroke-miterlimit="10"/><line x1="131.7008" y1="77.9738" x2="131.7008" y2="88.0825" fill="none" stroke="#8c59fc" stroke-miterlimit="10"/><line x1="135.1222" y1="81.0321" x2="128.278" y2="81.0321" fill="none" stroke="#8c59fc" stroke-miterlimit="10"/><line x1="135.1222" y1="85.0242" x2="128.278" y2="85.0242" fill="none" stroke="#8c59fc" stroke-miterlimit="10"/><polygon points="121.037 66.54 115.585 66.54 118.311 64.247 121.037 61.954 123.764 64.247 126.49 66.54 121.037 66.54" fill="none" stroke="#8c59fc" stroke-miterlimit="10"/><polyline points="126.174 66.54 126.174 68.841 115.901 68.841 115.901 66.54" fill="none" stroke="#8c59fc" stroke-miterlimit="10"/><polyline points="127.27 71.741 127.27 69 114.804 69 114.804 71.741" fill="none" stroke="#8c59fc" stroke-miterlimit="10"/><line x1="117.0779" y1="68.9999" x2="117.0779" y2="71.7024" fill="none" stroke="#8c59fc" stroke-miterlimit="10"/><line x1="125.0388" y1="68.9999" x2="125.0388" y2="71.7024" fill="none" stroke="#8c59fc" stroke-miterlimit="10"/></g><g clip-path="url(#clip-path-4)"><path d="M28.5554,109.3737H16.1862v-3.4053H28.5554Zm-11.3692-1H27.5554v-1.4053H17.1862Z" fill="#8c59fc"/></g><g clip-path="url(#clip-path-4)"><path d="M61.9606,109.3737h-12.37v-3.4053h12.37Zm-11.37-1h10.37v-1.4053h-10.37Z" fill="#8c59fc"/></g><g clip-path="url(#clip-path-4)"><path d="M95.3669,109.3737h-12.37v-3.4053h12.37Zm-11.37-1h10.37v-1.4053h-10.37Z" fill="#8c59fc"/></g><g clip-path="url(#clip-path-4)"><path d="M128.7731,109.3737h-12.37v-3.4053h12.37Zm-11.37-1h10.37v-1.4053h-10.37Z" fill="#8c59fc"/><line x1="103.5005" y1="43.5968" x2="38.48" y2="43.5968" fill="none" stroke="#8c59fc" stroke-miterlimit="10"/></g></g></g></g></g><g clip-path="url(#clip-path-2)"><circle cx="71" cy="71" r="66" fill="none" stroke="#8c59fc" stroke-miterlimit="10"/></g><g clip-path="url(#clip-path)"><g clip-path="url(#clip-path-2)"><g style="isolation:isolate"><g clip-path="url(#clip-path-16)"><g clip-path="url(#clip-path-4)"><circle cx="71" cy="71" r="66" fill="none" stroke="#8c59fc" stroke-miterlimit="10"/></g></g></g></g></g><polygon points="8.704 92.665 9.077 93.665 133.006 93.665 133.388 92.665 8.704 92.665" fill="#8c59fc"/><rect x="94.3669" y="107.1686" width="23.0361" height="1" fill="#8c59fc"/></svg>