<?xml version="1.0" encoding="UTF-8"?>
<svg width="142px" height="142px" viewBox="0 0 142 142" version="1.1" xmlns="http://www.w3.org/2000/svg" xmlns:xlink="http://www.w3.org/1999/xlink">
    <defs>
        <circle id="path-1" cx="66" cy="66" r="66"></circle>
    </defs>
    <g id="Symbols" stroke="none" stroke-width="1" fill="none" fill-rule="evenodd">
        <g id="Icon-/-Region-/-YassValley" transform="translate(5.000000, 5.000000)">
            <mask id="mask-2" fill="white">
                <use xlink:href="#path-1"></use>
            </mask>
            <use id="Mask" stroke="#8C59FC" stroke-linejoin="round" xlink:href="#path-1"></use>
            <g id="Group-109" mask="url(#mask-2)">
                <g transform="translate(4.830769, 22.500000)" id="Group-108">
                    <g transform="translate(0.169231, 0.500000)">
                        <path d="M98.1985732,39.6489908 C99.8812282,39.6489908 103.245679,40.2817908 101.563454,45.4126831 C101.563454,45.4126831 109.624475,45.9752677 109.624475,52.0904677 C109.624475,58.2056677 106.504883,58.7682523 104.927904,58.7682523 C103.385721,58.7682523 102.61463,57.6430831 102.61463,57.6430831 C102.61463,57.6430831 102.684651,59.89256 99.3202,59.89256 C95.7452563,59.89256 95.9553197,56.5187754 95.9553197,56.5187754 C95.6052141,57.9950215 91.0486859,58.4865292 90.3480451,55.3940369" id="Stroke-1" stroke="#8C59FC" stroke-linecap="round" stroke-linejoin="round"></path>
                        <path d="M107.030729,58.28816 C107.030729,58.28816 109.414025,60.3847138 109.414025,63.26656 C109.414025,66.1484062 105.558996,67.4140062 103.80632,66.6407754" id="Stroke-3" stroke="#8C59FC" stroke-linejoin="round"></path>
                        <path d="M106.049488,66.6406031 C106.531474,67.4159877 106.610087,72.2638646 102.684608,72.2638646 C99.4206782,72.2638646 98.1985303,70.0143877 98.1985303,70.0143877 C98.1985303,70.0143877 97.0803401,72.2638646 92.5908261,72.2638646 C89.2263754,72.2638646 87.9032768,69.5082338 87.8800796,67.9906338" id="Stroke-5" stroke="#8C59FC" stroke-linecap="round" stroke-linejoin="round"></path>
                        <polyline id="Stroke-7" stroke="#8C59FC" stroke-linejoin="round" points="85.8616669 83.5104308 85.8616669 64.3911692 86.9832937 57.6431692 86.9832937 52.0199077 89.2265472 48.6456923 89.2265472 42.8380615"></polyline>
                        <polyline id="Stroke-9" stroke="#8C59FC" stroke-linejoin="round" points="80.2538768 83.5104308 80.2538768 71.1391692 70.1600951 57.6431692 80.2538768 66.6406462 81.3755035 64.3911692 77.9384542 52.9999077 82.4971303 61.0173846 84.7399542 57.6431692 86.9832077 52.0199077 81.3755035 46.3966462 81.3755035 40.5898769"></polyline>
                        <polyline id="Stroke-11" stroke="#8C59FC" stroke-linejoin="round" points="81.3754176 46.39656 75.7677134 44.1475138 74.6460866 40.7732985"></polyline>
                        <polyline id="Stroke-13" stroke="#8C59FC" stroke-linejoin="round" points="91.469457 57.0808431 91.469457 64.3914277 85.8617528 70.0142585"></polyline>
                        <polyline id="Stroke-15" stroke="#8C59FC" stroke-linejoin="round" points="99.320157 59.8926031 95.9552768 64.3911262 91.4696289 64.3911262"></polyline>
                        <path d="M80.2538768,71.1392985 C80.2538768,71.1392985 75.8030246,74.33776 73.4545246,70.01456 C73.4545246,70.01456 72.4733697,71.1392985 70.5080528,71.1392985 C69.8752852,71.1392985 69.1488697,71.1031138 68.3373979,70.7175754 C65.6740176,69.4524062 65.6740176,66.6407754 65.6740176,66.6407754 C65.6740176,66.6407754 60.385919,67.7090831 58.5241303,63.7584985 C56.7014331,59.8927754 59.6191232,56.6163446 59.6191232,56.6163446" id="Stroke-17" stroke="#8C59FC" stroke-linecap="round" stroke-linejoin="round"></path>
                        <polyline id="Stroke-19" stroke="#8C59FC" stroke-linejoin="round" points="75.2117972 64.3122092 67.9807197 63.2663015 64.4946986 56.9667323"></polyline>
                        <path d="M70.1600521,38.52408 C70.1600521,38.52408 70.9311437,40.7735569 73.5249324,40.7735569 C76.1182915,40.7735569 76.8893831,38.52408 76.8893831,38.52408 C76.8893831,38.52408 78.2910944,40.7735569 80.2538338,40.7735569 C82.2165732,40.7735569 83.6187141,38.52408 83.6187141,38.52408 C83.6187141,38.52408 84.599869,43.0226031 88.1047915,43.0226031 C90.4880873,43.0226031 91.4692423,40.7735569 91.4692423,40.7735569 C91.4692423,40.7735569 92.1703127,43.0226031 94.8341225,43.0226031 C97.0069254,43.0226031 98.1985732,41.3710338 98.1985732,39.6488185 C98.1985732,36.2043877 95.9553197,36.2746031 95.9553197,36.2746031 C95.9553197,36.2746031 99.3202,35.2907262 99.3202,31.77608 C99.3202,28.2618646 96.9369042,26.1528185 94.8341225,26.1528185 C92.7309113,26.1528185 91.4692423,27.2779877 91.4692423,27.2779877 C91.4692423,27.2779877 91.6445099,23.9037723 88.1047915,23.9037723 C85.5243197,23.9037723 84.7399113,26.1528185 84.7399113,26.1528185 C84.7399113,26.1528185 82.7776014,22.7790338 79.132207,22.7790338 C75.4872423,22.7790338 74.6461296,27.2779877 74.6461296,27.2779877 C74.6461296,27.2779877 69.9276507,25.9150338 67.9868197,27.7962031 C65.0429254,30.6517723 66.9356437,35.1502954 66.9356437,35.1502954 C66.9356437,35.1502954 60.0662704,35.1502954 60.0662704,40.7735569 C60.0662704,43.7816185 62.3095239,45.27208 62.3095239,45.27208 C62.3095239,45.27208 57.8230169,46.6078954 57.8230169,50.8953415 C57.8230169,55.6751569 59.7857563,57.6433415 62.3095239,57.6433415 C64.832862,57.6433415 65.6739746,55.3938646 65.6739746,55.3938646 C65.6739746,55.3938646 66.7230028,57.6433415 70.1600521,57.6433415 C73.1043761,57.6433415 74.6461296,53.8474031 73.5249324,50.8953415 C73.5249324,50.8953415 74.4360662,53.1443877 76.8893831,53.1443877 C79.4827423,53.1443877 80.2538338,50.9306646 80.2538338,49.7706031" id="Stroke-21" stroke="#8C59FC" stroke-linecap="round" stroke-linejoin="round"></path>
                        <polygon id="Stroke-23" stroke="#8C59FC" stroke-linecap="round" stroke-linejoin="round" points="67.2742366 23.0349108 53.3383141 19.4121415 53.3383141 14.1933723 67.2742366 10.5701723"></polygon>
                        <path d="M40.5095415,16.6246769 L67.2743655,16.8025846" id="Stroke-25" stroke="#8C59FC" stroke-linecap="round" stroke-linejoin="round"></path>
                        <path d="M60.3061894,12.3817723 L60.3061894,21.2233108" id="Stroke-27" stroke="#8C59FC" stroke-linecap="round" stroke-linejoin="round"></path>
                        <path d="M34.9844021,28.3316062 L35.10855,83.4980677" id="Stroke-29" stroke="#8C59FC" stroke-linecap="round" stroke-linejoin="round"></path>
                        <path d="M34.1252472,28.3316062 L23.0644866,83.4972062" id="Stroke-31" stroke="#8C59FC" stroke-linecap="round" stroke-linejoin="round"></path>
                        <path d="M35.843557,28.3316062 L47.1521838,83.4972062" id="Stroke-33" stroke="#8C59FC" stroke-linecap="round" stroke-linejoin="round"></path>
                        <path d="M32.0031775,39.7676246 L38.017262,39.7676246" id="Stroke-35" stroke="#8C59FC" stroke-linecap="round" stroke-linejoin="round"></path>
                        <path d="M29.9532338,49.9983938 L40.263093,49.9983938" id="Stroke-37" stroke="#8C59FC" stroke-linecap="round" stroke-linejoin="round"></path>
                        <path d="M27.7174549,61.1647077 L42.3230887,61.1647077" id="Stroke-39" stroke="#8C59FC" stroke-linecap="round" stroke-linejoin="round"></path>
                        <path d="M23.4491732,16.7647631 C23.4491732,10.3764554 28.6135535,5.19731692 34.9841873,5.19731692 C41.3548211,5.19731692 46.5192014,10.3764554 46.5192014,16.7647631 C46.5192014,23.1530708 41.3548211,28.3317785 34.9841873,28.3317785 C28.6135535,28.3317785 23.4491732,23.1530708 23.4491732,16.7647631 Z" id="Stroke-41" stroke="#8C59FC" stroke-linecap="round" stroke-linejoin="round"></path>
                        <path d="M33.0433563,16.7647631 C33.0433563,15.6899938 33.911962,14.8181169 34.9841873,14.8181169 C36.0559831,14.8181169 36.9250183,15.6899938 36.9250183,16.7647631 C36.9250183,17.8395323 36.0559831,18.7109785 34.9841873,18.7109785 C33.911962,18.7109785 33.0433563,17.8395323 33.0433563,16.7647631 Z" id="Stroke-43" stroke="#8C59FC" stroke-linecap="round" stroke-linejoin="round"></path>
                        <path d="M38.5017824,13.2374523 L31.4665923,20.29216" id="Stroke-45" stroke="#8C59FC" stroke-linecap="round" stroke-linejoin="round"></path>
                        <path d="M38.5017824,20.2921169 L31.4665923,13.2374092" id="Stroke-47" stroke="#8C59FC" stroke-linecap="round" stroke-linejoin="round"></path>
                        <path d="M39.789269,15.4737477 L30.178762,18.0557785" id="Stroke-49" stroke="#8C59FC" stroke-linecap="round" stroke-linejoin="round"></path>
                        <path d="M36.2716739,21.5831754 L33.696357,11.9464369" id="Stroke-51" stroke="#8C59FC" stroke-linecap="round" stroke-linejoin="round"></path>
                        <path d="M36.2716739,11.9463938 L33.696357,21.5831323" id="Stroke-53" stroke="#8C59FC" stroke-linecap="round" stroke-linejoin="round"></path>
                        <path d="M39.789269,18.0558215 L30.178762,15.4737908" id="Stroke-55" stroke="#8C59FC" stroke-linecap="round" stroke-linejoin="round"></path>
                        <g id="Group-59" transform="translate(0.000000, 83.282769)" stroke="#8C59FC" stroke-linecap="round" stroke-linejoin="round">
                            <path d="M121.785297,0.2501 L0.214874648,0.2501" id="Stroke-57"></path>
                        </g>
                        <polygon id="Fill-60" fill="#FFFFFF" points="35.9129768 22.0055446 37.1192303 21.6816062 41.2487585 32.3724369 37.6673711 33.3352062"></polygon>
                        <polygon id="Stroke-62" stroke="#8C59FC" stroke-linecap="round" stroke-linejoin="round" points="35.9129768 22.0055446 37.1192303 21.6816062 41.2487585 32.3724369 37.6673711 33.3352062"></polygon>
                        <polygon id="Fill-64" fill="#FFFFFF" points="34.4252211 11.5997538 33.2189676 11.9236923 29.0894394 1.23286154 32.6708268 0.270092308"></polygon>
                        <polygon id="Stroke-66" stroke="#8C59FC" stroke-linecap="round" stroke-linejoin="round" points="34.4252211 11.5997538 33.2189676 11.9236923 29.0894394 1.23286154 32.6708268 0.270092308"></polygon>
                        <polygon id="Fill-68" fill="#FFFFFF" points="38.407619 20.9357723 39.2908303 20.0501108 48.198119 27.2383569 45.5759782 29.8673415"></polygon>
                        <polygon id="Stroke-70" stroke="#8C59FC" stroke-linecap="round" stroke-linejoin="round" points="38.407619 20.9357723 39.2908303 20.0501108 48.198119 27.2383569 45.5759782 29.8673415"></polygon>
                        <polygon id="Fill-72" fill="#FFFFFF" points="31.9305789 12.6695262 31.0473676 13.5551877 22.1400789 6.36694154 24.7622197 3.73795692"></polygon>
                        <polygon id="Stroke-74" stroke="#8C59FC" stroke-linecap="round" stroke-linejoin="round" points="31.9305789 12.6695262 31.0473676 13.5551877 22.1400789 6.36694154 24.7622197 3.73795692"></polygon>
                        <polygon id="Fill-76" fill="#FFFFFF" points="40.0346866 18.7579323 40.3577289 17.5483323 51.6556162 19.3075938 50.6959401 22.8993477"></polygon>
                        <polygon id="Stroke-78" stroke="#8C59FC" stroke-linecap="round" stroke-linejoin="round" points="40.0346866 18.7579323 40.3577289 17.5483323 51.6556162 19.3075938 50.6959401 22.8993477"></polygon>
                        <polygon id="Fill-80" fill="#FFFFFF" points="30.3035113 14.8473662 29.980469 16.0569662 18.6825817 14.2977046 19.6422577 10.7059508"></polygon>
                        <polygon id="Stroke-82" stroke="#8C59FC" stroke-linecap="round" stroke-linejoin="round" points="30.3035113 14.8473662 29.980469 16.0569662 18.6825817 14.2977046 19.6422577 10.7059508"></polygon>
                        <polygon id="Fill-84" fill="#FFFFFF" points="40.3576859 16.0567938 40.0346437 14.8471938 50.6958972 10.7057785 51.6555732 14.2975323"></polygon>
                        <polygon id="Stroke-86" stroke="#8C59FC" stroke-linecap="round" stroke-linejoin="round" points="40.3576859 16.0567938 40.0346437 14.8471938 50.6958972 10.7057785 51.6555732 14.2975323"></polygon>
                        <polygon id="Fill-88" fill="#FFFFFF" points="29.980512 17.5485046 30.3035542 18.7581046 19.6423007 22.89952 18.6826246 19.3077662"></polygon>
                        <polygon id="Stroke-90" stroke="#8C59FC" stroke-linecap="round" stroke-linejoin="round" points="29.980512 17.5485046 30.3035542 18.7581046 19.6423007 22.89952 18.6826246 19.3077662"></polygon>
                        <polygon id="Fill-92" fill="#FFFFFF" points="39.2906585 13.5550585 38.4074472 12.6693969 45.5758063 3.73782769 48.1979472 6.36681231"></polygon>
                        <polygon id="Stroke-94" stroke="#8C59FC" stroke-linecap="round" stroke-linejoin="round" points="39.2906585 13.5550585 38.4074472 12.6693969 45.5758063 3.73782769 48.1979472 6.36681231"></polygon>
                        <polygon id="Fill-96" fill="#FFFFFF" points="31.0475394 20.05024 31.9307507 20.9359015 24.7623915 29.8674708 22.1402507 27.2384862"></polygon>
                        <polygon id="Stroke-98" stroke="#8C59FC" stroke-linecap="round" stroke-linejoin="round" points="31.0475394 20.05024 31.9307507 20.9359015 24.7623915 29.8674708 22.1402507 27.2384862"></polygon>
                        <polygon id="Fill-100" fill="#FFFFFF" points="37.1191014 11.9236923 35.9128479 11.5997538 37.6672423 0.270092308 41.2490592 1.23286154"></polygon>
                        <polygon id="Stroke-102" stroke="#8C59FC" stroke-linecap="round" stroke-linejoin="round" points="37.1191014 11.9236923 35.9128479 11.5997538 37.6672423 0.270092308 41.2490592 1.23286154"></polygon>
                        <polygon id="Fill-104" fill="#FFFFFF" points="33.2190965 21.6816062 34.42535 22.0055446 32.6709556 33.3352062 29.0891387 32.3724369"></polygon>
                        <polygon id="Stroke-106" stroke="#8C59FC" stroke-linecap="round" stroke-linejoin="round" points="33.2190965 21.6816062 34.42535 22.0055446 32.6709556 33.3352062 29.0891387 32.3724369"></polygon>
                    </g>
                </g>
            </g>
        </g>
    </g>
</svg>