<svg id="Layer_1" data-name="Layer 1" xmlns="http://www.w3.org/2000/svg" xmlns:xlink="http://www.w3.org/1999/xlink" width="142" height="142" viewBox="0 0 142 142"><defs><clipPath id="clip-path"><rect x="4" y="4" width="134" height="134" fill="none"/></clipPath><clipPath id="clip-path-2"><circle cx="71" cy="71" r="66" fill="none"/></clipPath><clipPath id="clip-path-4"><rect x="-8" width="152" height="142" fill="none"/></clipPath><clipPath id="clip-path-5"><rect x="5" y="5" width="132" height="132" fill="none"/></clipPath><clipPath id="clip-path-6"><rect x="64.188" y="46.5234" width="7.531" height="17.8125" fill="none"/></clipPath><clipPath id="clip-path-8"><rect x="58" y="40" width="20" height="30" fill="none"/></clipPath><clipPath id="clip-path-9"><rect x="64" y="46" width="8" height="19" fill="none"/></clipPath><clipPath id="clip-path-10"><rect x="71.718" y="46.5234" width="7.53" height="17.8125" fill="none"/></clipPath><clipPath id="clip-path-12"><rect x="66" y="40" width="19" height="30" fill="none"/></clipPath><clipPath id="clip-path-13"><rect x="71" y="46" width="9" height="19" fill="none"/></clipPath></defs><title>icon-region-south-canberra</title><g clip-path="url(#clip-path)"><circle cx="71" cy="71" r="66" fill="none" stroke="#8c59fc" stroke-miterlimit="10"/></g><g clip-path="url(#clip-path-2)"><g clip-path="url(#clip-path)"><g style="isolation:isolate"><g clip-path="url(#clip-path-4)"><g clip-path="url(#clip-path-5)"><circle cx="71" cy="71" r="66" fill="none" stroke="#8c59fc" stroke-miterlimit="10"/><rect x="-1.708" y="68.165" width="27.3795" height="15.3179" fill="none" stroke="#8c59fc" stroke-miterlimit="10" stroke-width="1.123"/><rect x="25.672" y="68.165" width="30.9894" height="15.3179" fill="none" stroke="#8c59fc" stroke-miterlimit="10" stroke-width="1.123"/><rect x="86.776" y="68.165" width="30.9899" height="15.3179" fill="none" stroke="#8c59fc" stroke-miterlimit="10" stroke-width="1.123"/><rect x="56.662" y="68.165" width="30.114" height="15.3179" fill="none" stroke="#8c59fc" stroke-miterlimit="10" stroke-width="1.123"/><rect x="114.942" y="68.165" width="22.9933" height="15.3179" fill="none" stroke="#8c59fc" stroke-miterlimit="10" stroke-width="1.123"/><rect x="18.441" y="62.9432" width="13.7382" height="5.2223" fill="none" stroke="#8c59fc" stroke-miterlimit="10" stroke-width="1.123"/><rect x="32.179" y="60.5066" width="24.4823" height="7.6589" fill="none" stroke="#8c59fc" stroke-miterlimit="10" stroke-width="1.123"/><rect x="59.4771" y="64.336" width="24.4828" height="3.8295" fill="none" stroke="#8c59fc" stroke-miterlimit="10" stroke-width="1.123"/><rect x="35.399" y="58.0113" width="18.0427" height="2.4952" fill="none" stroke="#8c59fc" stroke-miterlimit="10" stroke-width="1.123"/><rect x="111.2581" y="62.9432" width="13.7382" height="5.2223" fill="none" stroke="#8c59fc" stroke-miterlimit="10" stroke-width="1.123"/><rect x="86.776" y="60.5066" width="24.4828" height="7.6589" fill="none" stroke="#8c59fc" stroke-miterlimit="10" stroke-width="1.123"/><rect x="89.996" y="58.0113" width="18.0422" height="2.4952" fill="none" stroke="#8c59fc" stroke-miterlimit="10" stroke-width="1.123"/></g><g clip-path="url(#clip-path-6)"><g clip-path="url(#clip-path-5)"><g style="isolation:isolate"><g clip-path="url(#clip-path-8)"><g clip-path="url(#clip-path-9)"><polyline points="64.188 64.336 71.718 58.011 71.718 46.523" fill="none" stroke="#8c59fc" stroke-miterlimit="10" stroke-width="1.123"/></g></g></g></g></g><g clip-path="url(#clip-path-10)"><g clip-path="url(#clip-path-5)"><g style="isolation:isolate"><g clip-path="url(#clip-path-12)"><g clip-path="url(#clip-path-13)"><polyline points="79.248 64.336 71.718 58.011 71.718 46.523" fill="none" stroke="#8c59fc" stroke-miterlimit="10" stroke-width="1.123"/></g></g></g></g></g><g clip-path="url(#clip-path-5)"><line x1="71.7181" y1="56.7931" x2="71.7181" y2="60.5064" fill="none" stroke="#8c59fc" stroke-miterlimit="10" stroke-width="1.123"/><path d="M20.6344,70.8053h0a1.8223,1.8223,0,0,0-1.8174,1.8278v5.5636h3.6342V72.6331A1.8218,1.8218,0,0,0,20.6344,70.8053Z" fill="none" stroke="#8c59fc" stroke-miterlimit="10" stroke-width="1.123"/><path d="M51.6238,70.8053h0a1.8222,1.8222,0,0,0-1.8168,1.8278v5.5636h3.6342V72.6331A1.8223,1.8223,0,0,0,51.6238,70.8053Z" fill="none" stroke="#8c59fc" stroke-miterlimit="10" stroke-width="1.123"/><path d="M92.1893,70.8053h0a1.8223,1.8223,0,0,0-1.8174,1.8278v5.5636h3.6342V72.6331A1.8222,1.8222,0,0,0,92.1893,70.8053Z" fill="none" stroke="#231f20" stroke-miterlimit="10"/><path d="M123.1788,70.8053h0a1.8218,1.8218,0,0,0-1.8167,1.8278v5.5636h3.6341V72.6331A1.8222,1.8222,0,0,0,123.1788,70.8053Z" fill="none" stroke="#231f20" stroke-miterlimit="10"/><path d="M92.1893,70.8053h0a1.8223,1.8223,0,0,0-1.8174,1.8278v5.5636h3.6342V72.6331A1.8222,1.8222,0,0,0,92.1893,70.8053Z" fill="none" stroke="#8c59fc" stroke-miterlimit="10" stroke-width="1.123"/><path d="M123.1788,70.8053h0a1.8218,1.8218,0,0,0-1.8167,1.8278v5.5636h3.6341V72.6331A1.8222,1.8222,0,0,0,123.1788,70.8053Z" fill="none" stroke="#8c59fc" stroke-miterlimit="10" stroke-width="1.123"/><line x1="53.441" y1="78.1965" x2="90.3718" y2="78.1965" fill="none" stroke="#8c59fc" stroke-miterlimit="10" stroke-width="1.123"/><line x1="49.807" y1="79.9588" x2="94.0068" y2="79.9588" fill="none" stroke="#8c59fc" stroke-miterlimit="10" stroke-width="1.123"/><line x1="49.807" y1="81.7208" x2="94.0068" y2="81.7208" fill="none" stroke="#8c59fc" stroke-miterlimit="10" stroke-width="1.123"/><line x1="53.441" y1="83.4831" x2="90.3718" y2="83.4831" fill="none" stroke="#8c59fc" stroke-miterlimit="10" stroke-width="1.123"/><path d="M79.2478,52.2391c-2.51-2.0728-5.02,2.0728-7.53,0V48.0935c2.51,2.0728,5.02-2.0728,7.53,0Z" fill="none" stroke="#8c59fc" stroke-linecap="round" stroke-linejoin="round" stroke-width="1.123"/><path d="M-1.708,87.5678c2.7926,0,2.7926,2.0937,5.5848,2.0937s2.7928-2.0937,5.585-2.0937,2.7927,2.0937,5.5848,2.0937,2.7932-2.0937,5.586-2.0937,2.7922,2.0937,5.5849,2.0937,2.7917-2.0937,5.5828-2.0937,2.7917,2.0937,5.5834,2.0937,2.7922-2.0937,5.5838-2.0937,2.7923,2.0937,5.585,2.0937,2.7916-2.0937,5.5832-2.0937,2.7928,2.0937,5.585,2.0937,2.7932-2.0937,5.5864-2.0937,2.7928,2.0937,5.585,2.0937,2.7927-2.0937,5.5859-2.0937,2.7928,2.0937,5.5855,2.0937,2.7932-2.0937,5.5864-2.0937,2.7932,2.0937,5.5866,2.0937,2.7932-2.0937,5.5859-2.0937,2.7926,2.0937,5.5853,2.0937,2.7923-2.0937,5.585-2.0937,2.7932,2.0937,5.5859,2.0937c2.7948,0,2.7948-2.0937,5.5891-2.0937s2.7932,2.0937,5.5865,2.0937c2.7952,0,2.7952-2.0937,5.59-2.0937s2.7954,2.0937,5.5907,2.0937" fill="none" stroke="#8c59fc" stroke-miterlimit="10" stroke-width="1.123"/><path d="M-1.708,94.7666c2.7926,0,2.7926,2.0938,5.5848,2.0938s2.7928-2.0938,5.585-2.0938S12.2545,96.86,15.0466,96.86s2.7932-2.0938,5.586-2.0938S23.4248,96.86,26.2175,96.86s2.7917-2.0938,5.5828-2.0938S34.592,96.86,37.3837,96.86s2.7922-2.0938,5.5838-2.0938S45.76,96.86,48.5525,96.86s2.7916-2.0938,5.5832-2.0938,2.7928,2.0938,5.585,2.0938,2.7932-2.0938,5.5864-2.0938S68.1,96.86,70.8921,96.86s2.7927-2.0938,5.5859-2.0938S79.2708,96.86,82.0635,96.86s2.7932-2.0938,5.5864-2.0938S90.4431,96.86,93.2365,96.86s2.7932-2.0938,5.5859-2.0938,2.7926,2.0938,5.5853,2.0938,2.7923-2.0938,5.585-2.0938,2.7932,2.0938,5.5859,2.0938c2.7948,0,2.7948-2.0938,5.5891-2.0938s2.7932,2.0938,5.5865,2.0938c2.7952,0,2.7952-2.0938,5.59-2.0938S135.14,96.86,137.9349,96.86" fill="none" stroke="#8c59fc" stroke-miterlimit="10" stroke-width="1.123"/><path d="M-1.708,101.9654c2.7926,0,2.7926,2.0938,5.5848,2.0938s2.7928-2.0938,5.585-2.0938,2.7927,2.0938,5.5848,2.0938,2.7932-2.0938,5.586-2.0938,2.7922,2.0938,5.5849,2.0938,2.7917-2.0938,5.5828-2.0938,2.7917,2.0938,5.5834,2.0938,2.7922-2.0938,5.5838-2.0938,2.7923,2.0938,5.585,2.0938,2.7916-2.0938,5.5832-2.0938,2.7928,2.0938,5.585,2.0938,2.7932-2.0938,5.5864-2.0938,2.7928,2.0938,5.585,2.0938,2.7927-2.0938,5.5859-2.0938,2.7928,2.0938,5.5855,2.0938,2.7932-2.0938,5.5864-2.0938,2.7932,2.0938,5.5866,2.0938,2.7932-2.0938,5.5859-2.0938,2.7926,2.0938,5.5853,2.0938,2.7923-2.0938,5.585-2.0938,2.7932,2.0938,5.5859,2.0938c2.7948,0,2.7948-2.0938,5.5891-2.0938s2.7932,2.0938,5.5865,2.0938c2.7952,0,2.7952-2.0938,5.59-2.0938s2.7954,2.0938,5.5907,2.0938" fill="none" stroke="#8c59fc" stroke-miterlimit="10" stroke-width="1.123"/><path d="M-1.708,109.1639c2.7926,0,2.7926,2.0938,5.5848,2.0938s2.7928-2.0938,5.585-2.0938,2.7927,2.0938,5.5848,2.0938,2.7932-2.0938,5.586-2.0938,2.7922,2.0938,5.5849,2.0938,2.7917-2.0938,5.5828-2.0938,2.7917,2.0938,5.5834,2.0938,2.7922-2.0938,5.5838-2.0938,2.7923,2.0938,5.585,2.0938,2.7916-2.0938,5.5832-2.0938,2.7928,2.0938,5.585,2.0938,2.7932-2.0938,5.5864-2.0938,2.7928,2.0938,5.585,2.0938,2.7927-2.0938,5.5859-2.0938,2.7928,2.0938,5.5855,2.0938,2.7932-2.0938,5.5864-2.0938,2.7932,2.0938,5.5866,2.0938,2.7932-2.0938,5.5859-2.0938,2.7926,2.0938,5.5853,2.0938,2.7923-2.0938,5.585-2.0938,2.7932,2.0938,5.5859,2.0938c2.7948,0,2.7948-2.0938,5.5891-2.0938s2.7932,2.0938,5.5865,2.0938c2.7952,0,2.7952-2.0938,5.59-2.0938s2.7954,2.0938,5.5907,2.0938" fill="none" stroke="#8c59fc" stroke-miterlimit="10" stroke-width="1.123"/></g></g></g></g></g></svg>