<svg id="Layer_1" data-name="Layer 1" xmlns="http://www.w3.org/2000/svg" xmlns:xlink="http://www.w3.org/1999/xlink" width="142" height="142" viewBox="0 0 142 142"><defs><clipPath id="clip-path"><rect x="4" y="4" width="134" height="134" fill="none"/></clipPath><clipPath id="clip-path-2"><circle cx="71" cy="71" r="66" fill="none"/></clipPath><clipPath id="clip-path-4"><rect width="142" height="142" fill="none"/></clipPath><clipPath id="clip-path-5"><rect x="5" y="5" width="132" height="132" fill="none"/></clipPath></defs><title>icon-region-gungahlin</title><g clip-path="url(#clip-path)"><circle cx="71" cy="71" r="66" fill="none" stroke="#8c59fc" stroke-miterlimit="10"/></g><g clip-path="url(#clip-path-2)"><g clip-path="url(#clip-path)"><g style="isolation:isolate"><g clip-path="url(#clip-path-4)"><g clip-path="url(#clip-path-5)"><circle cx="71" cy="71" r="66" fill="none" stroke="#8c59fc" stroke-miterlimit="10"/><line x1="15.4999" y1="110" x2="127.3662" y2="110" fill="none" stroke="#8c59fc" stroke-miterlimit="10"/></g></g></g></g></g><g clip-path="url(#clip-path)"><rect x="40.226" y="59.4856" width="60.4904" height="39.0597" fill="none" stroke="#8c59fc" stroke-miterlimit="10" stroke-width="1.123"/><path d="M100.7167,47.7572h-60.49V44.163a9.6813,9.6813,0,0,1,9.6763-9.6865H91.04a9.6816,9.6816,0,0,1,9.6767,9.6865Z" fill="none" stroke="#8c59fc" stroke-miterlimit="10" stroke-width="1.123"/><path d="M95.245,104.0226H45.6976a5.4743,5.4743,0,0,1-5.4713-5.4773h60.49A5.4745,5.4745,0,0,1,95.245,104.0226Z" fill="none" stroke="#8c59fc" stroke-miterlimit="10" stroke-width="1.123"/><rect x="47.5971" y="104.0226" width="45.7489" height="2.7386" fill="none" stroke="#8c59fc" stroke-miterlimit="10" stroke-width="1.123"/><rect x="40.2263" y="47.7573" width="60.4904" height="11.6796" fill="none" stroke="#8c59fc" stroke-miterlimit="10" stroke-width="1.123"/><rect x="50.5653" y="59.4859" width="2.17" height="28.0562" fill="none" stroke="#8c59fc" stroke-miterlimit="10" stroke-width="1.123"/><rect x="88.2074" y="59.4856" width="2.17" height="28.0562" fill="none" stroke="#8c59fc" stroke-miterlimit="10" stroke-width="1.123"/><rect x="52.7354" y="49.9526" width="35.472" height="7.289" fill="none" stroke="#8c59fc" stroke-miterlimit="10" stroke-width="1.123"/><path d="M72.8221,93.0438a2.3507,2.3507,0,1,0-2.3509,2.3532A2.3519,2.3519,0,0,0,72.8221,93.0438Z" fill="none" stroke="#8c59fc" stroke-miterlimit="10" stroke-width="1.123"/><path d="M52.7354,91.46A1.0851,1.0851,0,1,0,51.65,92.5465,1.0858,1.0858,0,0,0,52.7354,91.46Z" fill="none" stroke="#8c59fc" stroke-miterlimit="10" stroke-width="1.123"/><path d="M52.7354,94.6272A1.0851,1.0851,0,1,0,51.65,95.7135,1.0858,1.0858,0,0,0,52.7354,94.6272Z" fill="none" stroke="#8c59fc" stroke-miterlimit="10" stroke-width="1.123"/><path d="M90.3776,91.46a1.085,1.085,0,1,0-1.0852,1.0863A1.0857,1.0857,0,0,0,90.3776,91.46Z" fill="none" stroke="#8c59fc" stroke-miterlimit="10" stroke-width="1.123"/><path d="M90.3776,94.6272a1.085,1.085,0,1,0-1.0852,1.0863A1.0857,1.0857,0,0,0,90.3776,94.6272Z" fill="none" stroke="#8c59fc" stroke-miterlimit="10" stroke-width="1.123"/><path d="M42.9193,59.4857H98.0235V82.265a5.2743,5.2743,0,0,1-5.2716,5.2769H48.1912a5.2744,5.2744,0,0,1-5.2719-5.2769Z" fill="none" stroke="#8c59fc" stroke-miterlimit="10" stroke-width="1.123"/><line x1="50.5651" y1="108.4624" x2="52.7352" y2="108.4624" fill="none" stroke="#8c59fc" stroke-miterlimit="10" stroke-width="1.123"/><line x1="88.2075" y1="108.4624" x2="90.3776" y2="108.4624" fill="none" stroke="#8c59fc" stroke-miterlimit="10" stroke-width="1.123"/><polygon points="63.945 26.205 70.471 34.201 76.998 26.205 63.945 26.205" fill="none" stroke="#8c59fc" stroke-miterlimit="10" stroke-width="1.123"/><line x1="80.7961" y1="26.2051" x2="60.1468" y2="26.2051" fill="none" stroke="#8c59fc" stroke-miterlimit="10" stroke-width="1.123"/><path d="M69.1084,72.0843a3,3,0,0,0,.8113.2618,2.9079,2.9079,0,0,0,.55.0512h.0157a3.4024,3.4024,0,0,0,.5249-.0475,3.1378,3.1378,0,0,0,2.47-2.166,3.15,3.15,0,1,0-6.1624-.9408,3.2373,3.2373,0,0,0,.1446.9477A3.161,3.161,0,0,0,69.1084,72.0843Z" fill="none" stroke="#8c59fc" stroke-miterlimit="10" stroke-width="1.123"/><path d="M73.7556,73.8915,70.47,73.8893h-3.332a4.0125,4.0125,0,0,0-3.8883,3.154,4.2652,4.2652,0,0,0-.115.9349v2.9632H77.8079V78.0737c0-.0308-.0014-.06-.0025-.0955a4.1093,4.1093,0,0,0-4.05-4.0871Z" fill="none" stroke="#8c59fc" stroke-miterlimit="10" stroke-width="1.123"/><polyline points="58.365 87.542 58.365 80.941 88.207 80.941" fill="none" stroke="#8c59fc" stroke-miterlimit="10" stroke-width="1.123"/></g></svg>