<?xml version="1.0" encoding="UTF-8"?>
<svg width="142px" height="142px" viewBox="0 0 142 142" version="1.1" xmlns="http://www.w3.org/2000/svg" xmlns:xlink="http://www.w3.org/1999/xlink">
    <defs>
        <circle id="path-1" cx="66" cy="66" r="66"></circle>
    </defs>
    <g id="Symbols" stroke="none" stroke-width="1" fill="none" fill-rule="evenodd">
        <g id="Icon-/-Region-/-BraidwoodBungendore" transform="translate(5.000000, 5.000000)">
            <mask id="mask-2" fill="white">
                <use xlink:href="#path-1"></use>
            </mask>
            <use id="Mask" stroke="#8C59FC" xlink:href="#path-1"></use>
            <g id="Group-109" mask="url(#mask-2)" stroke-linecap="round">
                <g transform="translate(9.000000, 18.000000)" id="Group-108">
                    <g transform="translate(0.000000, 0.500000)">
                        <path d="M14.8588538,23.842757 L190.382847,23.842757" id="Stroke-1" stroke="#8C59FC"></path>
                        <path d="M14.8588538,51.2528437 L190.382847,51.2528437" id="Stroke-2" stroke="#8C59FC"></path>
                        <polygon id="Stroke-3" stroke="#8C59FC" points="102.451072 46.1119535 103.129225 46.1119535 103.129225 23.842757 102.451072 23.842757"></polygon>
                        <polygon id="Stroke-6" stroke="#8C59FC" points="58.4854246 46.1119535 59.1635777 46.1119535 59.1635777 23.842757 58.4854246 23.842757"></polygon>
                        <polygon id="Stroke-7" stroke="#8C59FC" points="58.5382552 87.0855641 59.6188817 87.0855641 59.6188817 51.2526995 58.5382552 51.2526995"></polygon>
                        <polygon id="Stroke-8" stroke="#8C59FC" points="14.6576172 87.0855641 15.7382436 87.0855641 15.7382436 51.2526995 14.6576172 51.2526995"></polygon>
                        <polygon id="Stroke-9" stroke="#8C59FC" points="102.419374 87.0855641 103.5 87.0855641 103.5 51.2526995 102.419374 51.2526995"></polygon>
                        <polygon id="Stroke-12" stroke="#8C59FC" points="14.5197773 46.1119535 15.1979304 46.1119535 15.1979304 23.842757 14.5197773 23.842757"></polygon>
                        <g id="Group-19" transform="translate(13.928074, 86.664058)" stroke="#8C59FC">
                            <polygon id="Stroke-13" points="44.0804339 2.62852842 46.2210348 2.62852842 46.2210348 0.486390704 44.0804339 0.486390704"></polygon>
                            <polygon id="Stroke-15" points="87.9615522 2.62852842 90.1021531 2.62852842 90.1021531 0.486390704 87.9615522 0.486390704"></polygon>
                            <polygon id="Stroke-18" points="0.199795824 2.56364429 2.34039675 2.56364429 2.34039675 0.421506569 0.199795824 0.421506569"></polygon>
                        </g>
                        <polygon id="Stroke-20" stroke="#8C59FC" points="76.0554501 86.4948782 85.9578306 86.4948782 85.9578306 66.7643335 76.0554501 66.7643335"></polygon>
                        <g id="Group-107" transform="translate(0.000000, 0.151877)" stroke="#8C59FC">
                            <path d="M85.9578787,66.612793 L76.0554981,66.612793 L76.0554981,61.5162643 L78.8026907,61.2499991 C80.2685005,61.1077346 81.7448763,61.1077346 83.2106861,61.2499991 L85.9578787,61.5162643 L85.9578787,66.612793 Z" id="Stroke-21"></path>
                            <polygon id="Stroke-23" points="26.7423828 79.9334099 34.2323248 79.9334099 34.2323248 66.6129372 26.7423828 66.6129372"></polygon>
                            <path d="M34.2322768,66.612793 L26.7423348,66.612793 L26.7423348,62.7577141 L28.8200193,62.556333 C29.9289821,62.4486734 31.0456295,62.4486734 32.1545923,62.556333 L34.2322768,62.7577141 L34.2322768,66.612793 Z" id="Stroke-25"></path>
                            <polygon id="Stroke-26" points="40.166645 79.9334099 47.656587 79.9334099 47.656587 66.6129372 40.166645 66.6129372"></polygon>
                            <path d="M47.656635,66.612793 L40.166693,66.612793 L40.166693,62.7577141 L42.2443775,62.556333 C43.3533404,62.4486734 44.4699877,62.4486734 45.5789506,62.556333 L47.656635,62.7577141 L47.656635,66.612793 Z" id="Stroke-27"></path>
                            <polyline id="Stroke-28" points="26.7422387 37.276032 26.7422387 32.6846383 34.2321807 32.6846383 34.2321807 37.276032"></polyline>
                            <path d="M34.2322768,32.6847344 L26.7423348,32.6847344 L26.7423348,28.8296555 L28.8200193,28.6282744 C29.9289821,28.5201342 31.0456295,28.5201342 32.1545923,28.6282744 L34.2322768,28.8296555 L34.2322768,32.6847344 Z" id="Stroke-29"></path>
                            <polyline id="Stroke-30" points="40.166549 37.276032 40.166549 32.6846383 47.656491 32.6846383 47.656491 37.276032"></polyline>
                            <path d="M47.656635,32.6847344 L40.166693,32.6847344 L40.166693,28.8296555 L42.2443775,28.6282744 C43.3533404,28.5201342 44.4699877,28.5201342 45.5789506,28.6282744 L47.656635,28.8296555 L47.656635,32.6847344 Z" id="Stroke-31"></path>
                            <polyline id="Stroke-32" points="70.3502227 37.276032 70.3502227 32.6846383 77.8401647 32.6846383 77.8401647 37.276032"></polyline>
                            <path d="M77.8402608,32.6847344 L70.3503188,32.6847344 L70.3503188,28.8296555 L72.4280032,28.6282744 C73.5369661,28.5201342 74.6536135,28.5201342 75.7625763,28.6282744 L77.8402608,28.8296555 L77.8402608,32.6847344 Z" id="Stroke-33"></path>
                            <polyline id="Stroke-34" points="83.774581 37.276032 83.774581 32.6846383 91.264523 32.6846383 91.264523 37.276032"></polyline>
                            <path d="M91.264619,32.6847344 L83.774677,32.6847344 L83.774677,28.8296555 L85.8523615,28.6282744 C86.9613244,28.5201342 88.0779717,28.5201342 89.1869346,28.6282744 L91.264619,28.8296555 L91.264619,32.6847344 Z" id="Stroke-35"></path>
                            <polygon id="Stroke-36" points="115.092 79.9334099 122.582422 79.9334099 122.582422 66.6129372 115.092 66.6129372"></polygon>
                            <path d="M122.582614,66.612793 L115.092192,66.612793 L115.092192,62.7577141 L117.170357,62.556333 C118.27932,62.4486734 119.395967,62.4486734 120.50445,62.556333 L122.582614,62.7577141 L122.582614,66.612793 Z" id="Stroke-37"></path>
                            <polygon id="Stroke-40" points="12.2759165 47.2409375 193.340882 47.2409375 193.340882 45.9576735 12.2759165 45.9576735"></polygon>
                            <polygon id="Stroke-41" points="13.2364733 48.5203565 192.380325 48.5203565 192.380325 47.23517 13.2364733 47.23517"></polygon>
                            <path d="M14.6576172,48.5171363 L14.6576172,51.1009668" id="Stroke-42"></path>
                            <path d="M102.138411,7.14883792 L67.1616543,7.14883792 L22.2027912,19.6950266 L18.2438561,19.6950266 C16.5297425,19.6950266 14.9059211,20.4630625 13.8180905,21.7886214" id="Stroke-44"></path>
                            <path d="M102.618689,7.14883792 L137.595445,7.14883792 L182.554309,19.6950266 L186.513724,19.6950266 C188.227838,19.6950266 189.851179,20.4630625 190.93949,21.7886214" id="Stroke-45"></path>
                            <polyline id="Stroke-46" points="59.8047494 9.22666825 59.8047494 2.67337057 67.6275244 2.67337057 67.6275244 7.14893405"></polyline>
                            <polyline id="Stroke-47" points="59.8047494 1.74134601 59.8047494 0.569586585 67.6275244 0.569586585 67.6275244 1.36982426"></polyline>
                            <polygon id="Stroke-48" points="13.0265916 23.6942444 191.900046 23.6942444 191.900046 21.7885733 13.0265916 21.7885733"></polygon>
                            <path d="M0.240139211,89.1406129 L206.759861,89.1406129" id="Stroke-49"></path>
                            <polygon id="Stroke-50" points="71.9154501 89.1556084 90.1228051 89.1556084 90.1228051 86.4227847 71.9154501 86.4227847"></polygon>
                            <path d="M15.1979304,37.276032 L58.3475847,37.276032" id="Stroke-56"></path>
                            <path d="M59.2210671,37.276032 L102.41971,37.276032" id="Stroke-57"></path>
                            <path d="M103.129225,37.276032 L146.300492,37.276032" id="Stroke-58"></path>
                            <path d="M67.5640316,7.14883792 L137.518025,7.14883792" id="Stroke-60"></path>
                            <path d="M22.2027912,19.6952669 L182.663332,19.6952669" id="Stroke-61"></path>
                            <path d="M18.6933487,37.276032 L18.6933487,45.9575293" id="Stroke-62"></path>
                            <path d="M23.1959589,37.276032 L23.1959589,45.9575293" id="Stroke-63"></path>
                            <path d="M27.6985691,37.276032 L27.6985691,45.9575293" id="Stroke-64"></path>
                            <path d="M32.2011794,37.276032 L32.2011794,45.9575293" id="Stroke-65"></path>
                            <path d="M36.7037896,37.276032 L36.7037896,45.9575293" id="Stroke-66"></path>
                            <path d="M41.2063998,37.276032 L41.2063998,45.9575293" id="Stroke-67"></path>
                            <path d="M45.70901,37.276032 L45.70901,45.9575293" id="Stroke-68"></path>
                            <path d="M50.2116202,37.276032 L50.2116202,45.9575293" id="Stroke-69"></path>
                            <path d="M54.7142304,37.276032 L54.7142304,45.9575293" id="Stroke-70"></path>
                            <path d="M62.8097555,37.276032 L62.8097555,45.9575293" id="Stroke-71"></path>
                            <path d="M67.3123657,37.276032 L67.3123657,45.9575293" id="Stroke-72"></path>
                            <path d="M71.8149759,37.276032 L71.8149759,45.9575293" id="Stroke-73"></path>
                            <path d="M76.3175861,37.276032 L76.3175861,45.9575293" id="Stroke-74"></path>
                            <path d="M80.8201963,37.276032 L80.8201963,45.9575293" id="Stroke-75"></path>
                            <path d="M85.3228065,37.276032 L85.3228065,45.9575293" id="Stroke-76"></path>
                            <path d="M89.8254167,37.276032 L89.8254167,45.9575293" id="Stroke-77"></path>
                            <path d="M94.3280269,37.276032 L94.3280269,45.9575293" id="Stroke-78"></path>
                            <path d="M98.8306371,37.276032 L98.8306371,45.9575293" id="Stroke-79"></path>
                            <polyline id="Stroke-80" points="114.302999 37.276032 114.302999 32.6846383 121.793421 32.6846383 121.793421 37.276032"></polyline>
                            <path d="M121.793277,32.6847344 L114.302855,32.6847344 L114.302855,28.8296555 L116.381019,28.6282744 C117.489982,28.5201342 118.606629,28.5201342 119.715112,28.6282744 L121.793277,28.8296555 L121.793277,32.6847344 Z" id="Stroke-81"></path>
                            <polyline id="Stroke-82" points="127.727549 37.276032 127.727549 32.6846383 135.217491 32.6846383 135.217491 37.276032"></polyline>
                            <path d="M135.217587,32.6847344 L127.727645,32.6847344 L127.727645,28.8296555 L129.805329,28.6282744 C130.914292,28.5201342 132.03094,28.5201342 133.139422,28.6282744 L135.217587,28.8296555 L135.217587,32.6847344 Z" id="Stroke-83"></path>
                            <path d="M106.762771,37.276032 L106.762771,45.9575293" id="Stroke-84"></path>
                            <path d="M111.265382,37.276032 L111.265382,45.9575293" id="Stroke-85"></path>
                            <path d="M115.767992,37.276032 L115.767992,45.9575293" id="Stroke-86"></path>
                            <path d="M120.270602,37.276032 L120.270602,45.9575293" id="Stroke-87"></path>
                            <path d="M124.773212,37.276032 L124.773212,45.9575293" id="Stroke-88"></path>
                            <polygon id="Stroke-106" points="58.7611044 2.673707 68.6716497 2.673707 68.6716497 1.74177857 58.7611044 1.74177857"></polygon>
                        </g>
                    </g>
                </g>
            </g>
        </g>
    </g>
</svg>