<svg id="Layer_1" data-name="Layer 1" xmlns="http://www.w3.org/2000/svg" xmlns:xlink="http://www.w3.org/1999/xlink" width="142" height="142" viewBox="0 0 142 142"><defs><clipPath id="clip-path"><rect x="4" y="4" width="134" height="134" fill="none"/></clipPath><clipPath id="clip-path-2"><circle cx="71" cy="71" r="66" fill="none"/></clipPath><clipPath id="clip-path-4"><rect x="-10" width="160" height="142" fill="none"/></clipPath><clipPath id="clip-path-5"><rect x="5" y="5" width="132" height="132" fill="none"/></clipPath></defs><title>icon-region-molonglo</title><g clip-path="url(#clip-path)"><circle cx="71" cy="71" r="66" fill="none" stroke="#8c59fc" stroke-miterlimit="10"/></g><g clip-path="url(#clip-path-2)"><g clip-path="url(#clip-path)"><g style="isolation:isolate"><g clip-path="url(#clip-path-4)"><g clip-path="url(#clip-path-5)"><circle cx="71" cy="71" r="66" fill="none" stroke="#8c59fc" stroke-miterlimit="10"/><path d="M19.643,67.7939a3.5548,3.5548,0,0,1-7.11,0c0-1.96,1.5915-10.5478,3.5548-10.5478S19.643,65.8334,19.643,67.7939Z" fill="none" stroke="#8c59fc" stroke-miterlimit="10"/><line x1="16.0881" y1="71.3439" x2="16.0881" y2="74.7206" fill="none" stroke="#8c59fc" stroke-miterlimit="10"/><path d="M29.4244,68.3073a3.0379,3.0379,0,0,1-6.0758,0c0-1.6757,1.36-9.0141,3.0379-9.0141S29.4244,66.6316,29.4244,68.3073Z" fill="none" stroke="#8c59fc" stroke-miterlimit="10"/><line x1="26.3865" y1="71.5157" x2="26.3865" y2="74.4014" fill="none" stroke="#8c59fc" stroke-miterlimit="10"/><path d="M91.1279,70.8252,53.6843,29.2784,47.2428,70.6308s46.5856-.9573,77.3552,2.24V67.4144c-13.5156-7.0069-23.063-6.2026-23.063-6.2026l-9.432.4591" fill="none" stroke="#8c59fc" stroke-miterlimit="10"/><path d="M117.1787,64.1982l-1.15-3.2162S79.91,34.7921,53.6843,29.2784" fill="none" stroke="#8c59fc" stroke-miterlimit="10"/><line x1="62.1081" y1="31.6098" x2="95.8972" y2="71.0319" fill="none" stroke="#8c59fc" stroke-miterlimit="10"/><line x1="70.866" y1="34.9597" x2="92.1028" y2="61.671" fill="none" stroke="#8c59fc" stroke-miterlimit="10"/><line x1="78.831" y1="38.6148" x2="95.3904" y2="61.446" fill="none" stroke="#8c59fc" stroke-miterlimit="10"/><line x1="85.4314" y1="41.9971" x2="98.7951" y2="61.3451" fill="none" stroke="#8c59fc" stroke-miterlimit="10"/><line x1="90.9528" y1="45.0388" x2="101.5352" y2="61.2118" fill="none" stroke="#8c59fc" stroke-miterlimit="10"/><line x1="96.244" y1="48.1181" x2="104.4698" y2="61.2597" fill="none" stroke="#8c59fc" stroke-miterlimit="10"/><line x1="101.171" y1="51.1204" x2="107.5159" y2="61.671" fill="none" stroke="#8c59fc" stroke-miterlimit="10"/><line x1="106.56" y1="54.5499" x2="110.6744" y2="62.2115" fill="none" stroke="#8c59fc" stroke-miterlimit="10"/><line x1="111.155" y1="57.598" x2="113.6184" y2="62.8916" fill="none" stroke="#8c59fc" stroke-miterlimit="10"/><line x1="101.535" y1="61.2117" x2="100.18" y2="71.2987" fill="none" stroke="#8c59fc" stroke-miterlimit="10"/><line x1="97.4152" y1="71.0878" x2="92.103" y2="61.671" fill="none" stroke="#8c59fc" stroke-miterlimit="10"/><path d="M47.2426,70.6307,40.8011,73.732V70.0565s1.776-2.9176,7.1822-4.181" fill="none" stroke="#8c59fc" stroke-miterlimit="10"/><path d="M40.7536,73.8059,46.08,76.6228a5.6507,5.6507,0,0,0,2.4539.5605H69.2621q.2028,0,.4055-.0147l54.93-4.2979" fill="none" stroke="#8c59fc" stroke-miterlimit="10"/><path d="M-4.9547,76.9338a20.6591,20.6591,0,0,1,6.1809-1.0531c13.1993-.8688,26.3014-1.8366,39.5274-2.0749" fill="none" stroke="#8c59fc" stroke-miterlimit="10"/><path d="M124.621,73c16.445,1.3925,3.945-.8153,20.1673,2.2192" fill="none" stroke="#8c59fc" stroke-miterlimit="10"/><line x1="47.9833" y1="65.8755" x2="86.6671" y2="65.8755" fill="none" stroke="#8c59fc" stroke-miterlimit="10"/><line x1="51.0002" y1="65.8755" x2="51.0002" y2="70.5225" fill="none" stroke="#8c59fc" stroke-miterlimit="10"/><line x1="45.8624" y1="66.5129" x2="45.8624" y2="71.2281" fill="none" stroke="#8c59fc" stroke-miterlimit="10"/><line x1="44.022" y1="67.4176" x2="44.022" y2="72.1814" fill="none" stroke="#8c59fc" stroke-miterlimit="10"/><line x1="42.1815" y1="68.6171" x2="42.1815" y2="73.0264" fill="none" stroke="#8c59fc" stroke-miterlimit="10"/><line x1="57.5065" y1="65.8755" x2="57.5065" y2="70.5225" fill="none" stroke="#8c59fc" stroke-miterlimit="10"/><line x1="64.0129" y1="65.8755" x2="64.0129" y2="70.5225" fill="none" stroke="#8c59fc" stroke-miterlimit="10"/><line x1="70.5192" y1="65.8755" x2="70.5192" y2="70.5225" fill="none" stroke="#8c59fc" stroke-miterlimit="10"/><line x1="77.0256" y1="65.8755" x2="77.0256" y2="70.5225" fill="none" stroke="#8c59fc" stroke-miterlimit="10"/><line x1="83.5319" y1="65.8755" x2="83.5319" y2="70.5225" fill="none" stroke="#8c59fc" stroke-miterlimit="10"/><polyline points="52.698 70.522 56.157 61.786 60.137 36.438" fill="none" stroke="#8c59fc" stroke-miterlimit="10"/><line x1="56.1572" y1="61.7859" x2="83.0925" y2="61.7859" fill="none" stroke="#8c59fc" stroke-miterlimit="10"/><line x1="70.5192" y1="61.7859" x2="70.5192" y2="70.5028" fill="none" stroke="#8c59fc" stroke-miterlimit="10"/><line x1="52.3475" y1="36.8344" x2="59.967" y2="38.1763" fill="none" stroke="#8c59fc" stroke-miterlimit="10"/><line x1="51.692" y1="41.0595" x2="59.2379" y2="42.3882" fill="none" stroke="#8c59fc" stroke-miterlimit="10"/><line x1="51.0365" y1="45.2844" x2="58.5085" y2="46.6002" fill="none" stroke="#8c59fc" stroke-miterlimit="10"/><line x1="50.381" y1="49.5094" x2="57.7796" y2="50.8124" fill="none" stroke="#8c59fc" stroke-miterlimit="10"/><line x1="49.7256" y1="53.7345" x2="57.0504" y2="55.0243" fill="none" stroke="#8c59fc" stroke-miterlimit="10"/><line x1="49.07" y1="57.9594" x2="56.3212" y2="59.2363" fill="none" stroke="#8c59fc" stroke-miterlimit="10"/><line x1="48.4145" y1="62.1845" x2="55.592" y2="63.4482" fill="none" stroke="#8c59fc" stroke-miterlimit="10"/><line x1="47.6704" y1="67.4413" x2="53.5508" y2="68.4766" fill="none" stroke="#8c59fc" stroke-miterlimit="10"/><line x1="41.3967" y1="73.441" x2="41.3967" y2="74.2214" fill="none" stroke="#8c59fc" stroke-miterlimit="10"/><line x1="135.6942" y1="89.2025" x2="85.5796" y2="89.2025" fill="none" stroke="#8c59fc" stroke-miterlimit="10"/><line x1="81.4715" y1="96.4237" x2="131.5862" y2="96.4237" fill="none" stroke="#8c59fc" stroke-miterlimit="10"/><line x1="75.3094" y1="103.6451" x2="135.5" y2="103.5" fill="none" stroke="#8c59fc" stroke-miterlimit="10"/><line x1="71.2014" y1="110.9919" x2="127.5" y2="110.99" fill="none" stroke="#8c59fc" stroke-miterlimit="10"/></g></g></g></g></g></svg>