<svg id="Layer_1" data-name="Layer 1" xmlns="http://www.w3.org/2000/svg" xmlns:xlink="http://www.w3.org/1999/xlink" width="142" height="142" viewBox="0 0 142 142"><defs><clipPath id="clip-path"><rect x="4" y="4" width="134" height="134" fill="none"/></clipPath><clipPath id="clip-path-2"><circle cx="71" cy="71" r="66" fill="none"/></clipPath><clipPath id="clip-path-4"><rect width="142" height="142" fill="none"/></clipPath><clipPath id="clip-path-5"><rect x="5" y="5" width="132" height="132" fill="none"/></clipPath><clipPath id="clip-path-6"><line x1="37.946" y1="88.4728" x2="13" y2="88.4728" fill="none"/></clipPath><clipPath id="clip-path-9"><line x1="128.7029" y1="88.4728" x2="103.7571" y2="88.4728" fill="none"/></clipPath><clipPath id="clip-path-12"><line x1="62.2849" y1="93.5998" x2="31.6101" y2="119.7332" fill="none"/></clipPath><clipPath id="clip-path-15"><line x1="82.9651" y1="93.5998" x2="113.6399" y2="119.7332" fill="none"/></clipPath></defs><title>icon-region-weston-creek</title><g clip-path="url(#clip-path)"><circle cx="71" cy="71" r="66" fill="none" stroke="#8c59fc" stroke-miterlimit="10"/></g><g clip-path="url(#clip-path-2)"><g clip-path="url(#clip-path)"><g style="isolation:isolate"><g clip-path="url(#clip-path-4)"><g clip-path="url(#clip-path-5)"><circle cx="71" cy="71" r="66" fill="none" stroke="#8c59fc" stroke-miterlimit="10"/><path d="M103.0007,60.1794c0,.3859-14.3933.699-32.1489.699s-32.1489-.3131-32.1489-.699" fill="none" stroke="#8c59fc" stroke-miterlimit="10"/><path d="M99.5967,51.09c0,.345-12.8694.625-28.7449.625s-28.7449-.28-28.7449-.625" fill="none" stroke="#8c59fc" stroke-miterlimit="10"/><path d="M92.978,42.5344c0,.2659-9.906.481-22.1259.481s-22.126-.2151-22.126-.481" fill="none" stroke="#8c59fc" stroke-miterlimit="10"/></g><g clip-path="url(#clip-path-6)"><g clip-path="url(#clip-path-5)"><rect x="8" y="83.4728" width="34.946" height="10" fill="#fff"/></g></g><g clip-path="url(#clip-path-5)"><line x1="37.946" y1="88.4728" x2="7.5" y2="88.5" fill="none" stroke="#8c59fc" stroke-miterlimit="10"/></g><g clip-path="url(#clip-path-9)"><g clip-path="url(#clip-path-5)"><rect x="98.7571" y="83.4728" width="34.9458" height="10" fill="#fff"/></g></g><g clip-path="url(#clip-path-5)"><line x1="134.5" y1="88.5" x2="103.7571" y2="88.4728" fill="none" stroke="#8c59fc" stroke-miterlimit="10"/><path d="M37.946,74.1112V90.6641c0,1.6962,14.8387,3.0715,33.1429,3.0715s32.7033-1.3753,32.7033-3.0715l-.0356-16.5529.0356-7.0084a32.9174,32.9174,0,1,0-65.8347,0l-.0115,7.0084" fill="none" stroke="#8c59fc" stroke-miterlimit="10"/><polyline points="62.285 93.257 62.285 74.826 82.965 74.826 82.965 93.257" fill="none" stroke="#8c59fc" stroke-miterlimit="10"/><line x1="70.8748" y1="70.0048" x2="70.8748" y2="34.1148" fill="none" stroke="#8c59fc" stroke-miterlimit="10"/><path d="M75.8623,69.9413s.4431-34.9425-4.3574-35.7691" fill="none" stroke="#8c59fc" stroke-miterlimit="10"/><path d="M80.85,69.8778S81.7363,35.8825,72.136,34.23" fill="none" stroke="#8c59fc" stroke-miterlimit="10"/><path d="M85.8379,69.8147s1.3293-33.0484-13.0718-35.5275" fill="none" stroke="#8c59fc" stroke-miterlimit="10"/><path d="M90.8259,69.7512S92.5979,37.65,73.397,34.3446" fill="none" stroke="#8c59fc" stroke-miterlimit="10"/><path d="M95.8127,69.6877S98.0281,38.534,74.0271,34.4024" fill="none" stroke="#8c59fc" stroke-miterlimit="10"/><path d="M100.8,69.6243S103.4583,39.4177,74.657,34.46" fill="none" stroke="#8c59fc" stroke-miterlimit="10"/><line x1="70.8748" y1="70.0048" x2="70.8748" y2="34.1148" fill="none" stroke="#8c59fc" stroke-miterlimit="10"/><path d="M65.8877,69.9413s-.4431-34.9425,4.3572-35.7691" fill="none" stroke="#8c59fc" stroke-miterlimit="10"/><path d="M60.8994,69.8778S60.0132,35.8825,69.6138,34.23" fill="none" stroke="#8c59fc" stroke-miterlimit="10"/><path d="M55.9121,69.8147S54.583,36.7663,68.9836,34.2872" fill="none" stroke="#8c59fc" stroke-miterlimit="10"/><path d="M50.925,69.7512S49.1528,37.65,68.354,34.3446" fill="none" stroke="#8c59fc" stroke-miterlimit="10"/><path d="M45.9368,69.6877S43.7214,38.534,67.7229,34.4024" fill="none" stroke="#8c59fc" stroke-miterlimit="10"/><path d="M40.95,69.6243S38.291,39.4177,67.0925,34.46" fill="none" stroke="#8c59fc" stroke-miterlimit="10"/><polyline points="62.136 82.06 67.381 80.291 72.625 78.521 77.87 80.291 83.114 82.06" fill="none" stroke="#8c59fc" stroke-miterlimit="10"/><line x1="82.9648" y1="80.3802" x2="82.9648" y2="93.7355" fill="none" stroke="#8c59fc" stroke-miterlimit="10"/><line x1="62.2847" y1="80.3802" x2="62.2847" y2="93.7355" fill="none" stroke="#8c59fc" stroke-miterlimit="10"/><polyline points="79.352 93.733 79.352 82.216 65.898 82.216 65.898 93.733" fill="none" stroke="#8c59fc" stroke-miterlimit="10"/><line x1="70.2817" y1="82.2164" x2="70.2817" y2="93.7327" fill="none" stroke="#8c59fc" stroke-miterlimit="10"/><line x1="74.9678" y1="82.2164" x2="74.9678" y2="93.7327" fill="none" stroke="#8c59fc" stroke-miterlimit="10"/><line x1="65.699" y1="87.737" x2="79.1533" y2="87.737" fill="none" stroke="#8c59fc" stroke-miterlimit="10"/><path d="M37.946,69.36c0,.395,14.7322.7153,32.9053.7153s32.9053-.32,32.9053-.7153" fill="none" stroke="#8c59fc" stroke-miterlimit="10"/><path d="M103.7566,74.1113c0,.3953-14.7319.7153-32.9053.7153s-32.9053-.32-32.9053-.7153" fill="none" stroke="#8c59fc" stroke-miterlimit="10"/><line x1="62.136" y1="82.2164" x2="82.9648" y2="82.2164" fill="none" stroke="#8c59fc" stroke-miterlimit="10"/><path d="M103.7566,69.36h5.2959l.0146-2.5153A38.5044,38.5044,0,0,0,46.0449,37.0565l4.253,4.2622" fill="none" stroke="#8c59fc" stroke-miterlimit="10"/><path d="M52.8262,32.5607,51.2791,31.01a36.3321,36.3321,0,0,1,42.9,3.1793l.7524,2.7707" fill="none" stroke="#8c59fc" stroke-miterlimit="10"/><line x1="70.8428" y1="25.4687" x2="70.8428" y2="28.2415" fill="none" stroke="#8c59fc" stroke-miterlimit="10"/><line x1="64.1909" y1="26.0272" x2="64.6416" y2="28.5894" fill="none" stroke="#8c59fc" stroke-miterlimit="10"/><line x1="77.6604" y1="26.1315" x2="77.21" y2="28.6937" fill="none" stroke="#8c59fc" stroke-miterlimit="10"/><line x1="56.7781" y1="28.1792" x2="57.6301" y2="30.5258" fill="none" stroke="#8c59fc" stroke-miterlimit="10"/><line x1="85.4341" y1="28.5583" x2="84.582" y2="30.9052" fill="none" stroke="#8c59fc" stroke-miterlimit="10"/></g><g clip-path="url(#clip-path-12)"><g clip-path="url(#clip-path-5)"><rect x="26.6101" y="88.5998" width="40.6748" height="36.1334" fill="#fff"/></g></g><g clip-path="url(#clip-path-5)"><path d="M62.2849,93.6,29,122" fill="none" stroke="#8c59fc" stroke-miterlimit="10"/></g><g clip-path="url(#clip-path-15)"><g clip-path="url(#clip-path-5)"><rect x="77.9651" y="88.5998" width="40.6748" height="36.1334" fill="#fff"/></g></g><g clip-path="url(#clip-path-5)"><line x1="82.9651" y1="93.5998" x2="115.0002" y2="120" fill="none" stroke="#8c59fc" stroke-miterlimit="10"/></g></g></g></g></g></svg>