<?xml version="1.0" encoding="UTF-8"?>
<svg width="142px" height="142px" viewBox="0 0 142 142" version="1.1" xmlns="http://www.w3.org/2000/svg" xmlns:xlink="http://www.w3.org/1999/xlink">
    <defs>
        <circle id="path-1" cx="66" cy="66" r="66"></circle>
    </defs>
    <g id="Symbols" stroke="none" stroke-width="1" fill="none" fill-rule="evenodd">
        <g id="Icon-/-Region-/-Cooma" transform="translate(5.000000, 5.000000)">
            <mask id="mask-2" fill="white">
                <use xlink:href="#path-1"></use>
            </mask>
            <use id="Mask" stroke="#8C59FC" xlink:href="#path-1"></use>
            <g id="Group-26" mask="url(#mask-2)">
                <g transform="translate(-32.768473, 17.500000)" id="Group-25">
                    <g transform="translate(0.768473, 0.500000)">
                        <path d="M156.053035,57.9605946 C156.053035,63.6022448 151.4623,68.1751266 145.798624,68.1751266 C140.136065,68.1751266 135.545329,63.6022448 135.545329,57.9605946 C135.545329,52.319501 140.136065,27.6114665 145.798624,27.6114665 C151.4623,27.6114665 156.053035,52.319501 156.053035,57.9605946 Z" id="Stroke-1" stroke="#8C59FC"></path>
                        <path d="M145.798847,68.1749039 L145.798847,77.8906773" id="Stroke-3" stroke="#8C59FC"></path>
                        <path d="M121.086721,52.1695951 C121.086721,56.4285261 117.620897,59.8814276 113.345338,59.8814276 C109.069779,59.8814276 105.603956,56.4285261 105.603956,52.1695951 C105.603956,47.9112207 109.069779,29.2578709 113.345338,29.2578709 C117.620897,29.2578709 121.086721,47.9112207 121.086721,52.1695951 Z" id="Stroke-5" stroke="#8C59FC"></path>
                        <path d="M113.345562,59.8811493 L113.345562,67.2161296" id="Stroke-7" stroke="#8C59FC"></path>
                        <path d="M91.1460176,48.4034665 C91.1460176,51.5374074 88.5955471,54.0774025 85.4499294,54.0774025 C82.3037529,54.0774025 79.7532824,51.5374074 79.7532824,48.4034665 C79.7532824,45.2700823 82.3037529,31.5447571 85.4499294,31.5447571 C88.5955471,31.5447571 91.1460176,45.2700823 91.1460176,48.4034665 Z" id="Stroke-9" stroke="#8C59FC"></path>
                        <path d="M85.4497059,54.0776251 L85.4497059,59.4749059" id="Stroke-11" stroke="#8C59FC"></path>
                        <path d="M65.2949529,47.6951847 C65.2949529,50.0620616 63.3692471,51.9802783 60.9936882,51.9802783 C58.6175706,51.9802783 56.6913059,50.0620616 56.6913059,47.6951847 C56.6913059,45.3288645 58.6175706,34.9634803 60.9936882,34.9634803 C63.3692471,34.9634803 65.2949529,45.3288645 65.2949529,47.6951847 Z" id="Stroke-13" stroke="#8C59FC"></path>
                        <path d="M60.9935206,51.9803897 L60.9935206,56.0561828" id="Stroke-15" stroke="#8C59FC"></path>
                        <path d="M42.2330882,48.410035 C42.2330882,50.034897 40.9109118,51.3519315 39.2797059,51.3519315 C37.6479412,51.3519315 36.3257647,50.034897 36.3257647,48.410035 C36.3257647,46.7846163 37.6479412,39.6678429 39.2797059,39.6678429 C40.9109118,39.6678429 42.2330882,46.7846163 42.2330882,48.410035 Z" id="Stroke-17" stroke="#8C59FC"></path>
                        <path d="M39.27965,51.3519872 L39.27965,54.1508246" id="Stroke-19" stroke="#8C59FC"></path>
                        <path d="M153.060256,89.9864645 C96.9800794,53.7051148 19.9116088,56.4365975 19.9116088,56.4365975 C19.9116088,56.4365975 105.632344,78.9063414 124.513315,112.556405" id="Stroke-21" stroke="#8C59FC"></path>
                        <path d="M0.126517647,23.2389788 C17.9250471,14.2223581 37.0608412,4.94800837 56.8940471,7.25365369 C66.3236353,8.35025468 75.4861059,12.0631118 84.9676647,11.5721463 C98.9086353,10.8496143 111.159724,1.17670296 125.094547,0.338944335 C134.591753,-0.231622167 143.763165,3.35932857 152.966988,5.76127438 C164.986724,8.89688522 177.526165,10.0458113 189.918635,9.14626453" id="Stroke-23" stroke="#8C59FC"></path>
                    </g>
                </g>
            </g>
        </g>
    </g>
</svg>